<?xml version="1.0" encoding="UTF-8"?>
<svg xmlns="http://www.w3.org/2000/svg" xmlns:xlink="http://www.w3.org/1999/xlink" width="545" height="410" viewBox="150 135 545 410">
<defs>
<clipPath id="clip-0">
<path clip-rule="nonzero" d="M 0.46 2 L 841.32 2 L 841.32 594.55 L 0.46 594.55 Z M 0.46 2 "/>
</clipPath>
</defs>
<g clip-path="url(#clip-0)">

</g>
<path fill-rule="nonzero" fill="rgb(31.5%, 43.01%, 74.63%)" fill-opacity="1" d="M 84.91 92.78 L 80.99 92.78 L 80.99 79.01 L 84.91 79.01 Z M 79.89 92.57 L 76.05 92.57 L 76.05 79.39 L 79.89 79.39 Z M 77.08 87.81 L 73.64 87.81 L 73.64 84.51 L 77.08 84.51 Z M 72.42 99.57 L 80.87 99.57 L 80.87 96.85 L 72.42 96.85 Z M 68.86 88.55 L 70.83 88.55 L 70.83 83.84 L 68.86 83.84 Z M 84.91 102.79 L 68.35 102.79 L 68.35 93.65 L 84.91 93.65 Z M 74.64 91.63 L 65.02 91.63 L 65.02 80.75 L 74.64 80.75 Z M 74.64 91.63 "/>
<path fill-rule="nonzero" fill="rgb(31.5%, 43.01%, 74.63%)" fill-opacity="1" d="M 108.36 103.07 L 104.24 103.07 L 104.24 78.96 L 108.36 78.96 Z M 105.42 90.45 L 99.27 90.45 L 99.27 87.15 L 105.42 87.15 Z M 96.59 89.61 L 92.93 89.61 L 92.93 94.34 L 96.59 94.34 Z M 92.93 86.43 L 96.59 86.43 L 96.59 80.85 L 100.66 80.85 L 100.66 97.62 L 88.83 97.62 L 88.83 80.85 L 92.93 80.85 Z M 92.93 86.43 "/>
<path fill-rule="nonzero" fill="rgb(31.5%, 43.01%, 74.63%)" fill-opacity="1" d="M 131.97 92.86 L 127.82 92.86 L 127.82 78.98 L 131.97 78.98 Z M 127.85 98.49 L 119.25 98.49 L 119.25 99.59 L 127.85 99.59 Z M 123.14 83.11 C 123.94 83.89 125.24 84.43 127.03 84.74 L 125.34 87.86 C 123.05 87.42 121.36 86.54 120.27 85.21 C 119.18 83.89 118.63 82.3 118.63 80.44 L 118.63 79.65 L 121.93 79.65 L 121.93 80.44 C 121.93 81.43 122.34 82.32 123.14 83.11 M 122.04 94.14 L 117.94 94.14 L 117.94 90.27 L 122.04 90.27 Z M 119.25 95.44 L 127.85 95.44 L 127.85 93.8 L 131.97 93.8 L 131.97 102.79 L 115.15 102.79 L 115.15 93.8 L 119.25 93.8 Z M 119.27 85.47 C 118.18 86.84 116.47 87.76 114.15 88.22 L 112.41 85.12 C 113.67 84.89 114.7 84.53 115.47 84.05 C 116.25 83.57 116.8 83.03 117.13 82.41 C 117.47 81.8 117.63 81.14 117.63 80.44 L 117.63 79.65 L 120.91 79.65 L 120.91 80.44 C 120.91 82.42 120.36 84.1 119.27 85.47 M 119.85 88.77 C 122.25 88.7 124.54 88.51 126.72 88.22 L 126.98 91.14 C 124.73 91.54 122.4 91.79 120 91.92 C 117.61 92.05 115 92.11 112.18 92.11 L 111.75 88.89 C 114.75 88.89 117.45 88.85 119.85 88.77 "/>
<path fill-rule="nonzero" fill="rgb(31.5%, 43.01%, 74.63%)" fill-opacity="1" d="M 162.29 103.02 L 158.37 103.02 L 158.37 79.01 L 162.29 79.01 Z M 159.32 91.14 L 155.68 91.14 L 155.68 87.84 L 159.32 87.84 Z M 156.91 102.05 L 153.07 102.05 L 153.07 79.47 L 156.91 79.47 Z M 149.64 85 L 142.91 85 L 142.91 81.72 L 149.64 81.72 Z M 142.06 90.86 L 141.63 87.4 L 148.62 87.1 L 148.62 90.14 Z M 151.55 88.57 C 151.06 90.54 150.19 92.36 148.93 94.04 C 147.66 95.71 145.88 97.23 143.6 98.59 L 141.35 95.72 C 143.19 94.62 144.62 93.43 145.64 92.18 C 146.67 90.93 147.39 89.53 147.8 87.99 C 148.21 86.46 148.41 84.62 148.41 82.49 L 148.41 81.72 L 152.28 81.72 C 152.28 84.32 152.04 86.6 151.55 88.57 "/>
<path fill-rule="nonzero" fill="rgb(31.5%, 43.01%, 74.63%)" fill-opacity="1" d="M 185.3 93.8 L 181.16 93.8 L 181.16 78.98 L 185.3 78.98 Z M 185.3 103.02 L 181.16 103.02 L 181.16 97.98 L 168.74 97.98 L 168.74 94.7 L 185.3 94.7 Z M 175 89.59 C 176.6 89.52 178.15 89.35 179.67 89.09 L 180.13 92.34 C 178.58 92.62 176.98 92.79 175.35 92.87 C 173.71 92.95 171.46 92.98 168.61 92.98 L 166.44 92.98 L 166.44 89.71 L 168.61 89.71 C 171.28 89.71 173.4 89.67 175 89.59 M 177.57 88.04 L 170.51 88.04 L 170.51 91.22 L 166.44 91.22 L 166.44 85.02 L 173.48 85.02 L 173.48 83.51 L 166.41 83.51 L 166.41 80.26 L 177.57 80.26 Z M 177.57 88.04 "/>
<path fill-rule="nonzero" fill="rgb(31.5%, 43.01%, 74.63%)" fill-opacity="1" d="M 209.24 103.07 L 205.12 103.07 L 205.12 78.96 L 209.24 78.96 Z M 205.56 90.43 L 201.46 90.43 L 201.46 87.1 L 205.56 87.1 Z M 200.39 90.73 L 193.14 90.73 L 193.14 87.53 L 200.39 87.53 Z M 197.43 94.42 C 198.94 94.35 200.47 94.21 202.02 93.98 L 202.38 97.23 C 200.8 97.47 199.21 97.63 197.65 97.71 C 196.07 97.79 194.17 97.82 191.94 97.82 L 189.94 97.82 L 189.94 94.52 L 191.94 94.52 C 194.09 94.52 195.92 94.49 197.43 94.42 M 201.08 84.2 L 194.06 84.2 L 194.06 95.52 L 189.94 95.52 L 189.94 80.88 L 201.08 80.88 Z M 201.08 84.2 "/>
<path fill-rule="nonzero" fill="rgb(31.5%, 43.01%, 74.63%)" fill-opacity="1" d="M 240.77 87.76 L 236.64 87.76 L 236.64 84.38 L 240.77 84.38 Z M 238 93.09 L 233.88 93.09 L 233.88 78.98 L 238 78.98 Z M 227.81 92.09 L 223.69 92.09 L 223.69 88.45 L 227.81 88.45 Z M 227.81 81.82 L 223.69 81.82 L 223.69 78.8 L 227.81 78.8 Z M 224.16 85.89 C 223.83 86 223.66 86.17 223.66 86.41 C 223.66 86.64 223.83 86.81 224.18 86.92 C 224.52 87.02 225.04 87.07 225.74 87.07 C 226.44 87.07 226.96 87.02 227.3 86.92 C 227.64 86.81 227.81 86.64 227.81 86.41 C 227.81 86.17 227.64 86 227.31 85.89 C 226.98 85.79 226.45 85.74 225.74 85.74 C 225.02 85.74 224.5 85.79 224.16 85.89 M 238.79 102.92 L 221.54 102.92 L 221.54 100.23 L 238.79 100.23 Z M 238 99.59 L 225.63 99.59 L 225.63 101.18 L 221.54 101.18 L 221.54 97.11 L 233.93 97.11 L 233.93 96.52 L 221.51 96.52 L 221.51 93.83 L 238 93.83 Z M 230.11 84.1 C 231.19 84.66 231.73 85.43 231.73 86.41 C 231.73 87.38 231.19 88.15 230.11 88.71 C 229.04 89.27 227.58 89.55 225.74 89.55 C 223.89 89.55 222.43 89.27 221.36 88.71 C 220.29 88.15 219.75 87.38 219.75 86.41 C 219.75 85.43 220.29 84.66 221.36 84.1 C 222.43 83.54 223.89 83.26 225.74 83.26 C 227.58 83.26 229.04 83.54 230.11 84.1 M 232.5 82.98 L 218.95 82.98 L 218.95 80.31 L 232.5 80.31 Z M 226.29 90.21 C 228.65 90.13 230.9 89.96 233.03 89.68 L 233.31 92.14 C 231.09 92.53 228.81 92.79 226.46 92.89 C 224.12 93.01 221.55 93.06 218.75 93.06 L 218.34 90.32 C 221.27 90.32 223.92 90.29 226.29 90.21 "/>
<path fill-rule="nonzero" fill="rgb(31.5%, 43.01%, 74.63%)" fill-opacity="1" d="M 259.38 91.32 L 255.26 91.32 L 255.26 86.97 L 259.38 86.97 Z M 250.78 97.44 C 250.16 97.52 249.71 97.67 249.41 97.86 C 249.11 98.06 248.96 98.32 248.96 98.64 C 248.96 99.12 249.29 99.46 249.96 99.66 C 250.62 99.87 251.7 99.97 253.18 99.97 C 254.67 99.97 255.74 99.87 256.41 99.66 C 257.07 99.46 257.41 99.12 257.41 98.64 C 257.41 98.32 257.26 98.06 256.96 97.86 C 256.66 97.67 256.2 97.52 255.59 97.44 C 254.98 97.36 254.17 97.31 253.18 97.31 C 252.19 97.31 251.39 97.36 250.78 97.44 M 250.73 82.58 C 250.06 82.69 249.55 82.86 249.21 83.09 C 248.88 83.32 248.7 83.62 248.7 83.97 C 248.7 84.35 248.88 84.65 249.21 84.88 C 249.55 85.11 250.06 85.29 250.74 85.39 C 251.41 85.5 252.25 85.56 253.26 85.56 C 254.27 85.56 255.11 85.5 255.78 85.39 C 256.45 85.29 256.96 85.11 257.3 84.88 C 257.64 84.65 257.82 84.35 257.82 83.97 C 257.82 83.62 257.64 83.32 257.3 83.09 C 256.96 82.86 256.46 82.69 255.79 82.58 C 255.13 82.47 254.29 82.41 253.26 82.41 C 252.23 82.41 251.39 82.47 250.73 82.58 M 251.13 91.32 L 247.01 91.32 L 247.01 86.97 L 251.13 86.97 Z M 259.35 95.39 C 260.84 96.16 261.58 97.24 261.58 98.64 C 261.58 100.04 260.84 101.12 259.35 101.89 C 257.87 102.66 255.81 103.05 253.18 103.05 C 250.55 103.05 248.5 102.66 247.01 101.89 C 245.53 101.12 244.79 100.04 244.79 98.64 C 244.79 97.24 245.53 96.16 247.01 95.39 C 248.5 94.62 250.55 94.24 253.18 94.24 C 255.81 94.24 257.87 94.62 259.35 95.39 M 257.92 79.86 C 259.25 80.25 260.28 80.79 261 81.5 C 261.73 82.21 262.09 83.04 262.09 84 C 262.09 84.96 261.73 85.78 261 86.48 C 260.28 87.18 259.25 87.72 257.92 88.1 C 256.59 88.47 255.04 88.66 253.26 88.66 C 251.48 88.66 249.93 88.47 248.6 88.1 C 247.27 87.72 246.24 87.18 245.52 86.48 C 244.79 85.78 244.43 84.96 244.43 84 C 244.43 83.04 244.79 82.21 245.52 81.5 C 246.24 80.79 247.27 80.25 248.6 79.86 C 249.93 79.48 251.48 79.29 253.26 79.29 C 255.04 79.29 256.59 79.48 257.92 79.86 M 264.11 93.34 L 242.38 93.34 L 242.38 90.12 L 264.11 90.12 Z M 264.11 93.34 "/>
<path fill-rule="nonzero" fill="rgb(31.5%, 43.01%, 74.63%)" fill-opacity="1" d="M 195.12 67.78 L 73.05 67.78 C 67.73 67.78 63.41 63.46 63.41 58.13 L 63.41 56.12 C 63.41 50.79 67.73 46.47 73.05 46.47 L 195.12 46.47 C 200.45 46.47 204.76 50.79 204.76 56.12 L 204.76 58.13 C 204.76 63.46 200.45 67.78 195.12 67.78 "/>
<path fill-rule="nonzero" fill="rgb(100%, 100%, 100%)" fill-opacity="1" d="M 80.23 55.33 L 78.46 55.33 L 78.46 53.88 L 80.23 53.88 Z M 78.94 57.59 L 77.17 57.59 L 77.17 51.58 L 78.94 51.58 Z M 73.86 60.43 L 77.21 60.43 L 77.21 59.38 L 73.86 59.38 Z M 74.93 54.64 C 75.08 54.95 75.33 55.23 75.67 55.49 C 76.01 55.74 76.45 55.94 77 56.08 L 76.21 57.45 C 75.53 57.28 74.97 57.01 74.54 56.64 C 74.1 56.27 73.78 55.83 73.57 55.32 C 73.38 54.81 73.27 54.26 73.27 53.66 L 73.27 53.32 L 74.7 53.32 L 74.7 53.66 C 74.7 54 74.78 54.33 74.93 54.64 M 74.7 53.12 L 72.93 53.12 L 72.93 51.55 L 74.7 51.55 Z M 78.94 61.81 L 72.11 61.81 L 72.11 58 L 78.94 58 Z M 76.61 53.88 L 71.04 53.88 L 71.04 52.5 L 76.61 52.5 Z M 74.07 55.38 C 73.87 55.91 73.55 56.37 73.11 56.76 C 72.68 57.16 72.12 57.44 71.45 57.62 L 70.63 56.24 C 71.19 56.1 71.64 55.89 71.98 55.62 C 72.32 55.35 72.57 55.05 72.71 54.71 C 72.86 54.38 72.93 54.03 72.93 53.66 L 72.93 53.32 L 74.36 53.32 L 74.36 53.66 C 74.36 54.28 74.26 54.85 74.07 55.38 "/>
<path fill-rule="nonzero" fill="rgb(100%, 100%, 100%)" fill-opacity="1" d="M 90.41 55.58 L 88.64 55.58 L 88.64 54.14 L 90.41 54.14 Z M 89.12 58.07 L 87.36 58.07 L 87.36 51.59 L 89.12 51.59 Z M 83.32 55.45 C 83.17 55.54 83.09 55.7 83.09 55.91 C 83.09 56.11 83.17 56.26 83.32 56.36 C 83.48 56.45 83.69 56.5 83.96 56.5 C 84.23 56.5 84.45 56.45 84.6 56.36 C 84.75 56.26 84.83 56.11 84.83 55.91 C 84.83 55.7 84.75 55.54 84.6 55.45 C 84.45 55.35 84.23 55.3 83.96 55.3 C 83.69 55.3 83.48 55.35 83.32 55.45 M 84.84 53.18 L 83.07 53.18 L 83.07 51.52 L 84.84 51.52 Z M 89.12 61.91 L 87.36 61.91 L 87.36 59.82 L 82.14 59.82 L 82.14 58.42 L 89.12 58.42 Z M 85.29 54.22 C 85.68 54.39 85.99 54.62 86.21 54.91 C 86.43 55.2 86.54 55.54 86.54 55.91 C 86.54 56.29 86.43 56.62 86.21 56.91 C 85.99 57.2 85.68 57.42 85.29 57.58 C 84.9 57.75 84.46 57.83 83.96 57.83 C 83.47 57.83 83.03 57.75 82.64 57.58 C 82.24 57.42 81.94 57.2 81.72 56.91 C 81.5 56.62 81.39 56.29 81.39 55.91 C 81.39 55.54 81.5 55.2 81.72 54.91 C 81.94 54.62 82.24 54.39 82.64 54.22 C 83.03 54.05 83.47 53.97 83.96 53.97 C 84.46 53.97 84.9 54.05 85.29 54.22 M 86.99 53.77 L 80.93 53.77 L 80.93 52.38 L 86.99 52.38 Z M 86.99 53.77 "/>
<path fill-rule="nonzero" fill="rgb(100%, 100%, 100%)" fill-opacity="1" d="M 99.85 57.96 L 98.07 57.96 L 98.07 51.58 L 99.85 51.58 Z M 98.38 56.58 L 96.61 56.58 L 96.61 55.18 L 98.38 55.18 Z M 98.38 54.36 L 96.61 54.36 L 96.61 52.95 L 98.38 52.95 Z M 99.85 61.91 L 98.07 61.91 L 98.07 59.77 L 92.68 59.77 L 92.68 58.38 L 99.85 58.38 Z M 94.65 56.34 C 95.22 56.31 95.77 56.25 96.3 56.14 L 96.48 57.54 C 95.93 57.64 95.36 57.71 94.76 57.74 C 94.17 57.78 93.35 57.79 92.31 57.79 L 91.49 57.79 L 91.49 56.38 L 92.31 56.38 C 93.3 56.38 94.09 56.37 94.65 56.34 M 96.07 55.58 L 93.25 55.58 L 93.25 57.34 L 91.49 57.34 L 91.49 54.28 L 94.31 54.28 L 94.31 53.54 L 91.48 53.54 L 91.48 52.14 L 96.07 52.14 Z M 96.07 55.58 "/>
<path fill-rule="nonzero" fill="rgb(100%, 100%, 100%)" fill-opacity="1" d="M 109.48 57.4 L 107.71 57.4 L 107.71 55.37 L 109.48 55.37 Z M 107.55 53.3 C 107.26 53.35 107.04 53.43 106.89 53.54 C 106.74 53.65 106.66 53.8 106.66 53.97 C 106.66 54.15 106.74 54.29 106.89 54.41 C 107.04 54.52 107.26 54.61 107.55 54.66 C 107.84 54.71 108.2 54.75 108.62 54.75 C 109.05 54.75 109.41 54.71 109.7 54.66 C 109.99 54.61 110.21 54.52 110.36 54.41 C 110.51 54.29 110.59 54.15 110.59 53.97 C 110.59 53.8 110.51 53.65 110.36 53.54 C 110.21 53.43 109.99 53.35 109.7 53.3 C 109.41 53.24 109.05 53.21 108.62 53.21 C 108.2 53.21 107.84 53.24 107.55 53.3 M 112.23 61.75 L 105.04 61.75 L 105.04 60.35 L 112.23 60.35 Z M 106.81 60.83 L 105.04 60.83 L 105.04 58.75 L 106.81 58.75 Z M 110.61 52.08 C 111.19 52.25 111.63 52.51 111.95 52.83 C 112.27 53.16 112.42 53.54 112.42 53.98 C 112.42 54.41 112.27 54.8 111.95 55.12 C 111.63 55.45 111.19 55.7 110.62 55.88 C 110.05 56.05 109.38 56.14 108.62 56.14 C 107.87 56.14 107.2 56.05 106.63 55.88 C 106.06 55.7 105.62 55.45 105.3 55.12 C 104.98 54.8 104.83 54.41 104.83 53.98 C 104.83 53.54 104.98 53.16 105.3 52.83 C 105.62 52.51 106.06 52.25 106.64 52.08 C 107.21 51.9 107.88 51.82 108.62 51.82 C 109.38 51.82 110.04 51.9 110.61 52.08 M 113.29 58.19 L 103.95 58.19 L 103.95 56.79 L 113.29 56.79 Z M 113.29 58.19 "/>
<path fill-rule="nonzero" fill="rgb(100%, 100%, 100%)" fill-opacity="1" d="M 123.7 56.81 L 121.93 56.81 L 121.93 55.36 L 123.7 55.36 Z M 122.32 61.93 L 120.55 61.93 L 120.55 51.56 L 122.32 51.56 Z M 117.88 58.07 C 118.58 58.04 119.27 57.96 119.96 57.84 L 120.13 59.26 C 119.42 59.39 118.7 59.48 117.96 59.52 C 117.24 59.57 116.4 59.59 115.45 59.59 L 114.56 59.59 L 114.56 58.13 L 115.45 58.13 C 116.38 58.13 117.19 58.11 117.88 58.07 M 119.35 56.56 L 116.32 56.56 L 116.32 58.67 L 114.56 58.67 L 114.56 55.17 L 117.59 55.17 L 117.59 53.81 L 114.55 53.81 L 114.55 52.4 L 119.35 52.4 Z M 119.35 56.56 "/>
<path fill-rule="nonzero" fill="rgb(100%, 100%, 100%)" fill-opacity="1" d="M 132.96 58.94 L 131.18 58.94 L 131.18 51.59 L 132.96 51.59 Z M 126.71 53.86 C 126.54 53.94 126.41 54.07 126.31 54.24 C 126.21 54.41 126.16 54.62 126.16 54.87 C 126.16 55.11 126.21 55.31 126.31 55.48 C 126.41 55.65 126.55 55.78 126.72 55.86 C 126.89 55.95 127.08 55.99 127.3 55.99 C 127.51 55.99 127.7 55.95 127.88 55.86 C 128.05 55.78 128.18 55.65 128.28 55.48 C 128.38 55.31 128.43 55.11 128.43 54.87 C 128.43 54.62 128.38 54.41 128.28 54.24 C 128.18 54.07 128.05 53.94 127.88 53.86 C 127.71 53.77 127.52 53.73 127.3 53.73 C 127.08 53.73 126.88 53.77 126.71 53.86 M 133.2 61.75 L 125.95 61.75 L 125.95 60.35 L 133.2 60.35 Z M 127.73 60.95 L 125.95 60.95 L 125.95 58.21 L 127.73 58.21 Z M 128.75 52.54 C 129.19 52.77 129.54 53.09 129.79 53.49 C 130.04 53.9 130.17 54.36 130.17 54.87 C 130.17 55.36 130.04 55.82 129.79 56.23 C 129.54 56.63 129.19 56.95 128.75 57.18 C 128.31 57.41 127.82 57.53 127.3 57.53 C 126.77 57.53 126.29 57.41 125.84 57.18 C 125.41 56.95 125.06 56.63 124.8 56.23 C 124.55 55.82 124.42 55.36 124.42 54.87 C 124.42 54.36 124.55 53.9 124.8 53.49 C 125.06 53.09 125.41 52.77 125.84 52.54 C 126.29 52.32 126.77 52.2 127.3 52.2 C 127.82 52.2 128.31 52.32 128.75 52.54 "/>
<path fill-rule="nonzero" fill="rgb(100%, 100%, 100%)" fill-opacity="1" d="M 145.36 54.29 C 145.32 54.7 145.25 55.14 145.12 55.61 L 143.36 55.44 C 143.48 54.97 143.56 54.55 143.59 54.18 C 143.62 53.8 143.64 53.36 143.64 52.84 L 143.64 52 L 145.41 52 L 145.41 52.84 C 145.41 53.39 145.39 53.87 145.36 54.29 M 142.18 56.41 L 140.41 56.41 L 140.41 54.38 L 142.18 54.38 Z M 140.68 59.35 C 140.4 59.4 140.18 59.47 140.04 59.56 C 139.9 59.66 139.83 59.79 139.83 59.94 C 139.83 60.09 139.9 60.22 140.04 60.31 C 140.18 60.41 140.4 60.48 140.68 60.53 C 140.96 60.58 141.32 60.6 141.75 60.6 C 142.19 60.6 142.55 60.58 142.83 60.53 C 143.12 60.48 143.33 60.41 143.48 60.31 C 143.62 60.22 143.69 60.09 143.69 59.94 C 143.69 59.79 143.62 59.66 143.48 59.56 C 143.33 59.47 143.12 59.4 142.83 59.35 C 142.55 59.3 142.19 59.28 141.75 59.28 C 141.32 59.28 140.96 59.3 140.68 59.35 M 144.67 53.39 L 138.19 53.39 L 138.19 52 L 144.67 52 Z M 143.71 58.2 C 144.26 58.35 144.69 58.58 145 58.88 C 145.3 59.18 145.45 59.54 145.45 59.94 C 145.45 60.34 145.3 60.7 145 61 C 144.69 61.3 144.26 61.53 143.71 61.68 C 143.15 61.84 142.5 61.92 141.75 61.92 C 141 61.92 140.35 61.84 139.8 61.68 C 139.25 61.53 138.82 61.3 138.51 61 C 138.21 60.7 138.05 60.34 138.05 59.94 C 138.05 59.54 138.21 59.18 138.51 58.88 C 138.82 58.58 139.25 58.35 139.8 58.2 C 140.35 58.04 141 57.96 141.75 57.96 C 142.5 57.96 143.15 58.04 143.71 58.2 M 146.46 57.47 L 137.17 57.47 L 137.17 56.08 L 146.46 56.08 Z M 146.46 57.47 "/>
<path fill-rule="nonzero" fill="rgb(100%, 100%, 100%)" fill-opacity="1" d="M 152.91 56.84 L 151.13 56.84 L 151.13 54.81 L 152.91 54.81 Z M 150.58 59.56 C 150.3 59.65 150.16 59.8 150.16 60.02 C 150.16 60.23 150.3 60.38 150.58 60.47 C 150.87 60.55 151.33 60.6 151.97 60.6 C 152.61 60.6 153.07 60.55 153.36 60.47 C 153.64 60.38 153.79 60.23 153.79 60.02 C 153.79 59.8 153.64 59.65 153.36 59.56 C 153.07 59.47 152.61 59.42 151.97 59.42 C 151.33 59.42 150.87 59.47 150.58 59.56 M 155.65 55.64 L 148.45 55.64 L 148.45 54.25 L 155.65 54.25 Z M 155.6 53.39 L 150.21 53.39 L 150.21 55.15 L 148.45 55.15 L 148.45 52 L 155.6 52 Z M 154.62 58.6 C 155.26 58.93 155.58 59.41 155.58 60.02 C 155.58 60.62 155.26 61.1 154.62 61.43 C 153.98 61.77 153.1 61.93 151.97 61.93 C 150.84 61.93 149.96 61.77 149.32 61.43 C 148.68 61.1 148.36 60.62 148.36 60.02 C 148.36 59.41 148.68 58.93 149.32 58.6 C 149.96 58.26 150.84 58.09 151.97 58.09 C 153.1 58.09 153.98 58.26 154.62 58.6 M 156.7 57.71 L 147.35 57.71 L 147.35 56.31 L 156.7 56.31 Z M 156.7 57.71 "/>
<path fill-rule="nonzero" fill="rgb(100%, 100%, 100%)" fill-opacity="1" d="M 166.1 55.66 C 166.06 56.38 165.96 57.22 165.8 58.18 L 164.04 58.02 C 164.18 57.12 164.28 56.32 164.32 55.62 C 164.36 54.92 164.38 54.14 164.38 53.3 L 164.38 52.37 L 166.16 52.37 L 166.16 53.3 C 166.16 54.16 166.14 54.95 166.1 55.66 M 163.59 59.79 L 161.86 59.79 L 161.86 56.18 L 163.59 56.18 Z M 161.05 59.79 L 159.3 59.79 L 159.3 56.18 L 161.05 56.18 Z M 164.87 53.77 L 158.39 53.77 L 158.39 52.37 L 164.87 52.37 Z M 166.87 60.78 L 157.52 60.78 L 157.52 59.34 L 166.87 59.34 Z M 166.87 60.78 "/>
<path fill-rule="nonzero" fill="rgb(100%, 100%, 100%)" fill-opacity="1" d="M 174.95 59.02 L 173.18 59.02 L 173.18 56.99 L 174.95 56.99 Z M 171.29 53.18 C 171 53.23 170.78 53.31 170.63 53.42 C 170.48 53.52 170.41 53.66 170.41 53.83 C 170.41 53.99 170.48 54.12 170.63 54.23 C 170.78 54.33 171 54.41 171.28 54.45 C 171.57 54.5 171.93 54.52 172.37 54.52 C 172.81 54.52 173.18 54.5 173.46 54.45 C 173.75 54.41 173.96 54.33 174.11 54.23 C 174.26 54.12 174.33 53.99 174.33 53.83 C 174.33 53.66 174.26 53.52 174.11 53.42 C 173.96 53.31 173.75 53.23 173.45 53.18 C 173.16 53.14 172.8 53.12 172.37 53.12 C 171.94 53.12 171.58 53.14 171.29 53.18 M 171.52 59.03 L 169.75 59.03 L 169.75 57 L 171.52 57 Z M 175.93 61.91 L 174.15 61.91 L 174.15 59.84 L 168.73 59.84 L 168.73 58.46 L 175.93 58.46 Z M 174.37 52.01 C 174.95 52.18 175.39 52.42 175.7 52.73 C 176.01 53.04 176.17 53.4 176.17 53.82 C 176.17 54.24 176.01 54.6 175.7 54.91 C 175.39 55.23 174.95 55.46 174.37 55.64 C 173.79 55.8 173.12 55.89 172.37 55.89 C 171.61 55.89 170.95 55.8 170.37 55.64 C 169.8 55.46 169.35 55.23 169.04 54.91 C 168.73 54.6 168.57 54.24 168.57 53.82 C 168.57 53.4 168.73 53.04 169.04 52.73 C 169.35 52.42 169.8 52.18 170.37 52.01 C 170.95 51.84 171.61 51.76 172.37 51.76 C 173.12 51.76 173.79 51.84 174.37 52.01 M 177.04 57.7 L 167.69 57.7 L 167.69 56.3 L 177.04 56.3 Z M 177.04 57.7 "/>
<path fill-rule="nonzero" fill="rgb(100%, 100%, 100%)" fill-opacity="1" d="M 187.36 57.09 L 185.58 57.09 L 185.58 55.64 L 187.36 55.64 Z M 186.11 61.9 L 184.34 61.9 L 184.34 51.57 L 186.11 51.57 Z M 183.63 55.51 C 183.61 56.08 183.53 56.72 183.4 57.43 L 181.67 57.28 C 181.79 56.6 181.86 55.99 181.88 55.44 C 181.91 54.89 181.93 54.26 181.93 53.54 L 181.93 52.54 L 183.68 52.54 L 183.68 53.54 C 183.68 54.29 183.66 54.94 183.63 55.51 M 181.21 59.02 L 179.47 59.02 L 179.47 55.5 L 181.21 55.5 Z M 182.63 53.94 L 178.29 53.94 L 178.29 52.54 L 182.63 52.54 Z M 181.1 58.44 C 182.11 58.41 183.06 58.33 183.95 58.22 L 184.04 59.51 C 183.12 59.67 182.15 59.78 181.14 59.84 C 180.14 59.89 179.07 59.92 177.94 59.92 L 177.8 58.5 C 178.98 58.5 180.08 58.48 181.1 58.44 "/>
<path fill-rule="nonzero" fill="rgb(100%, 100%, 100%)" fill-opacity="1" d="M 196.79 57.71 L 195 57.71 L 195 51.59 L 196.79 51.59 Z M 195.48 55.4 L 193.71 55.4 L 193.71 53.97 L 195.48 53.97 Z M 192.21 59.29 C 191.95 59.33 191.75 59.41 191.62 59.51 C 191.48 59.61 191.42 59.75 191.42 59.91 C 191.42 60.07 191.48 60.2 191.62 60.3 C 191.75 60.41 191.95 60.48 192.21 60.53 C 192.47 60.58 192.82 60.6 193.23 60.6 C 193.65 60.6 193.99 60.58 194.26 60.53 C 194.52 60.48 194.72 60.41 194.85 60.3 C 194.98 60.2 195.05 60.07 195.05 59.91 C 195.05 59.75 194.98 59.61 194.85 59.51 C 194.72 59.41 194.52 59.33 194.26 59.29 C 193.99 59.24 193.65 59.21 193.23 59.21 C 192.82 59.21 192.47 59.24 192.21 59.29 M 192.34 54.35 C 192.48 54.73 192.72 55.07 193.05 55.39 C 193.39 55.7 193.82 55.95 194.37 56.12 L 193.51 57.51 C 192.85 57.3 192.31 56.98 191.89 56.54 C 191.47 56.11 191.17 55.6 190.98 55.02 C 190.79 54.45 190.7 53.83 190.7 53.16 L 190.7 52.61 L 192.12 52.61 L 192.12 53.16 C 192.12 53.57 192.19 53.96 192.34 54.35 M 195.14 58.12 C 195.68 58.29 196.1 58.52 196.39 58.82 C 196.68 59.13 196.82 59.49 196.82 59.91 C 196.82 60.55 196.5 61.04 195.86 61.4 C 195.23 61.75 194.35 61.93 193.23 61.93 C 192.12 61.93 191.24 61.75 190.6 61.4 C 189.96 61.04 189.64 60.55 189.64 59.91 C 189.64 59.49 189.79 59.13 190.08 58.82 C 190.37 58.52 190.79 58.29 191.32 58.12 C 191.86 57.96 192.5 57.88 193.23 57.88 C 193.97 57.88 194.61 57.96 195.14 58.12 M 193.99 53.53 L 188.42 53.53 L 188.42 52.13 L 193.99 52.13 Z M 191.46 55.13 C 191.26 55.75 190.95 56.29 190.52 56.74 C 190.08 57.2 189.53 57.54 188.85 57.76 L 187.96 56.36 C 188.53 56.17 188.98 55.91 189.34 55.57 C 189.69 55.23 189.94 54.86 190.09 54.45 C 190.24 54.04 190.32 53.61 190.32 53.16 L 190.32 52.61 L 191.76 52.61 L 191.76 53.16 C 191.76 53.86 191.66 54.52 191.46 55.13 "/>
<path fill-rule="nonzero" fill="rgb(100%, 100%, 100%)" fill-opacity="1" stroke-width="4" stroke-linecap="round" stroke-linejoin="round" stroke="rgb(13.73%, 12.16%, 12.55%)" stroke-opacity="1" stroke-miterlimit="10" d="M 0 0 L -0.56 -1.4 L -1.38 -2.81 L -1.52 -4.48 L -2.5 -5.84 L -2.94 -7.39 L -3.15 -9.03 L -4.07 -10.43 L -4.41 -12.01 L -4.52 -13.66 L -5.48 -15.07 L -5.67 -16.69 L -5.62 -18.36 L -6 -19.92 L -6.34 -21.49 L -6.9 -23.02 L -6.94 -24.65 L -7.3 -26.22 L -8.07 -27.74 L -7.69 -29.41 L -8 -31 L -7.85 -32.62 L -8.24 -34.22 L -8.02 -35.83 L -8.53 -37.47 L -8 -39.1 L -9.6 -39.61 L -10.84 -40.68 L -12 -41.8 L -13.14 -42.91 L -13.79 -44.35 L -14.27 -45.93 L -13.73 -47.52 L -12.66 -48.78 L -11 -49.05 L -9.74 -50.18 L -8.16 -50.46 L -6.57 -50.64 L -4.98 -50.69 L -3.44 -51.12 L -1.83 -50.84 L -0.26 -50.9 L 1.32 -50.91 L 2.9 -51.17 L 4.5 -51.47 L 6.07 -50.97 L 7.68 -51.25 L 9.27 -51.15 L 10.81 -50.61 L 12.33 -50.14 L 13.87 -49.82 L 15.4 -49.45 L 16.97 -49 L 17.49 -47.5 L 17.95 -45.99 L 18.3 -44.45 L 18.7 -42.93 L 19.1 -41.4 L 19.56 -39.9 L 20.57 -38.58 L 20.8 -37 L 21.53 -35.58 L 21.62 -33.95 L 22.2 -32.48 L 22.79 -31.02 L 22.97 -29.41 L 23.75 -27.96 L 24.17 -29.55 L 24.87 -31 L 25.63 -32.42 L 26.06 -33.97 L 26.8 -35.39 L 27.18 -36.95 L 27.99 -38.35 L 28.54 -39.86 L 28.73 -41.49 L 29.1 -43.06 L 30.08 -44.4 L 30.72 -45.87 L 31.08 -47.45 L 31.62 -48.96 L 31.98 -50.58 L 33.61 -51.01 L 35.18 -51.16 L 36.73 -51.39 L 38.16 -52.15 L 39.74 -52.24 L 41.27 -52.57 L 42.74 -53.21 L 44.25 -53.69 L 45.86 -53.56 L 47.45 -53.56 L 48.94 -54.28 L 50.53 -54.12 L 52.1 -53.94 L 53.65 -54.44 L 55.24 -54.6 L 56.74 -53.91 L 58.31 -53.72 L 59.6 -52.81 L 60.53 -51.58 L 60.96 -50.09 L 60.97 -48.53 L 60.48 -47.06 L 59.4 -45.92 L 58.85 -44.44 L 57.77 -43.34 L 56.55 -42.47 L 56.39 -40.91 L 56.15 -39.34 L 56.1 -37.76 L 55.95 -36.19 L 55.44 -34.66 L 55.33 -33.08 L 55.08 -31.52 L 55.48 -29.89 L 55.04 -28.35 L 54.7 -26.8 L 54.94 -25.19 L 54.17 -23.68 L 54.03 -22.1 L 54.48 -20.46 L 54.13 -18.9 L 53.75 -17.2 L 55.09 -18.3 L 56.48 -18.99 L 58.04 -19.39 L 59.17 -20.54 L 60.48 -21.4 L 61.96 -21.94 L 63.46 -22.43 L 64.73 -23.35 L 66.14 -24.02 L 67.39 -24.98 L 68.96 -25.38 L 70.1 -26.49 L 70.62 -27.98 L 71.2 -29.5 L 72.32 -30.75 L 72.71 -32.41 L 73.95 -33.54 L 74.91 -34.85 L 75.92 -36.14 L 77.39 -36.95 L 78.6 -38.01 L 79.79 -39.12 L 81.16 -40.01 L 82.8 -40.34 L 84.21 -41.17 L 85.66 -41.94 L 87.34 -41.94 L 88.89 -42.45 L 90.51 -42.56 L 92.12 -42.62 L 93.74 -42.92 L 95.36 -42.73 L 96.97 -42.86 L 98.52 -42.32 L 100.15 -42.38 L 101.67 -41.83 L 103.21 -41.38 L 104.66 -40.7 L 106.08 -39.96 L 107.35 -38.98 L 108.65 -38.07 L 110.09 -37.34 L 111.12 -36.1 L 112.22 -34.96 L 113.45 -33.92 L 114.19 -32.48 L 115.03 -31.14 L 115.98 -29.87 L 116.89 -28.55 L 117.75 -27.18 L 117.89 -25.53 L 118.99 -24.19 L 118.93 -22.52 L 119.51 -21 L 119.11 -19.36 L 119.61 -17.78 L 119.43 -16.19 L 119.3 -14.56 L 118.6 -13.05 L 118.43 -11.41 L 117.68 -9.94 L 116.97 -8.49 L 116.45 -6.92 L 115.3 -5.72 L 114.22 -4.53 L 113.64 -2.88 L 112.47 -1.7 L 110.8 -1.18 L 109.52 -0.21 L 108.33 0.95 L 106.87 1.67 L 105.36 2.3 L 103.76 2.67 L 102.21 3.16 L 100.6 3.37 L 98.98 3.41 L 97.35 3.87 L 95.74 3.41 L 94.11 3.31 L 92.5 2.96 L 91.06 1.84 L 89.58 2.67 L 88.56 3.98 L 87.15 4.7 L 85.71 5.38 L 84.37 6.22 L 83.34 7.53 L 81.88 8.18 L 80.67 9.2 L 79.38 10.12 L 77.99 10.89 L 76.57 11.59 L 75.3 12.53 L 74.16 13.68 L 72.71 14.34 L 71.15 14.84 L 70 15.95 L 68.81 17.02 L 67.43 17.83 L 65.76 17.84 L 64.31 18.72 L 62.75 19.19 L 61.15 19.49 L 59.55 19.76 L 57.87 19.74 L 56.38 20.49 L 54.79 20.82 L 53.21 21.2 L 51.57 21.3 L 50.09 22.09 L 48.52 22.51 L 46.87 22.58 L 45.36 23.26 L 43.67 23.16 L 42.25 24.21 L 40.62 24.36 L 39.03 24.7 L 37.37 24.77 L 35.88 25.5 L 34.27 25.72 L 32.63 25.84 L 31.08 26.35 L 29.48 26.67 L 28.02 27.53 L 26.46 27.97 L 24.74 27.76 L 23.26 28.54 L 21.67 28.89 L 20.11 29.35 L 18.44 29.35 L 16.96 30.11 L 15.39 30.55 L 13.9 31.08 L 12.28 31.04 L 10.83 31.74 L 9.33 32.2 L 7.73 32.27 L 6.14 32.36 L 4.63 32.8 L 3.16 33.42 L 1.59 33.57 L 0.14 34.27 L -1.47 34.3 L -2.88 35.14 L -4.41 35.45 L -6.06 35.35 L -7.49 35.89 L -8.92 36.46 L -10.45 36.64 L -11.89 37.13 L -13.27 37.79 L -14.81 38.07 L -16.13 38.87 L -17.14 40.09 L -18.36 40.98 L -19.78 41.86 L -20.89 43.11 L -22.19 44.13 L -23.43 45.22 L -24.78 46.18 L -26.28 46.93 L -27.63 47.86 L -29.02 48.74 L -30.41 49.61 L -31.78 50.62 L -33.5 50.74 L -35.05 51.29 L -36.67 51.59 L -38.23 52.24 L -39.82 52.2 L -41.37 52.59 L -42.95 52.47 L -46.08 52.11 L -47.54 51.45 L -48.97 50.83 L -50.63 50.85 L -51.98 50.01 L -53.24 49.06 L -54.73 48.53 L -56.05 47.68 L -57.42 46.87 L -58.61 45.82 L -59.33 44.34 L -60.47 43.23 L -61.24 41.82 L -61.91 40.38 L -62.85 39.09 L -63.62 37.7 L -63.94 36.12 L -64.33 34.59 L -64.8 33.08 L -65.19 31.54 L -65.23 29.95 L -65.39 28.36 L -65.38 26.77 L -65.18 25.18 L -64.73 23.65 L -64.28 22.13 L -64.01 20.57 L -63.58 19.02 L -63.04 17.51 L -62.02 16.24 L -61.06 14.98 L -60.09 13.73 L -59.34 12.31 L -58.52 10.88 L -56.94 10.23 L -55.97 8.9 L -54.77 7.82 L -53.25 7.23 L -51.85 6.47 L -50.38 5.85 L -49 4.98 L -47.41 4.52 L -45.82 4.04 L -44.1 4.16 L -42.48 3.95 L -40.9 3.2 L -39.23 3.63 L -37.58 3.21 L -35.97 3.75 L -34.31 3.78 L -32.77 4.36 L -31.03 4.32 L -29.5 5 L -28.28 6.24 L -26.76 6.87 L -25.55 7.98 L -24.2 9.28 L -22.7 8.37 L -21.06 8.14 L -19.59 7.48 L -18.2 6.58 L -16.62 6.2 L -15.19 5.4 L -13.65 4.93 L -12.05 4.61 L -10.66 3.69 L -9.03 3.47 L -7.64 2.57 L -6.13 1.99 L -4.43 1.94 L -2.93 1.31 L -1.58 0.31 Z M 0 0 " transform="matrix(1, 0, 0, -1, 275.88, 391.32)"/>
<path fill-rule="nonzero" fill="rgb(100%, 100%, 100%)" fill-opacity="1" stroke-width="4" stroke-linecap="round" stroke-linejoin="round" stroke="rgb(13.73%, 12.16%, 12.55%)" stroke-opacity="1" stroke-miterlimit="10" d="M -0 0 L 0.4 -1.71 L 1.42 -3.04 L 1.85 -4.6 L 2.13 -6.21 L 2.6 -7.75 L 3.73 -9.07 L 3.6 -10.81 L 4.65 -12.17 L 5.17 -13.7 L 5.2 -15.37 L 5.59 -16.93 L 6.1 -18.46 L 6.74 -19.98 L 6.56 -21.66 L 7.37 -23.14 L 7.07 -24.84 L 7.95 -26.33 L 8.25 -27.92 L 8.06 -29.57 L 8.09 -31.19 L 8.23 -32.8 L 8.4 -34.4 L 8.38 -36.02 L 8.43 -37.63 L 8.08 -39.33 L 9.7 -39.88 L 10.98 -40.89 L 12.19 -41.94 L 13.59 -42.89 L 14.14 -44.47 L 14.59 -46.13 L 13.6 -47.55 L 12.51 -48.55 L 11.41 -49.82 L 9.72 -49.81 L 8.26 -50.42 L 6.69 -50.62 L 5.17 -51.17 L 3.59 -51.33 L 1.99 -51.18 L 0.42 -51.33 L -1.16 -51.28 L -2.74 -51.08 L -4.34 -51.53 L -5.92 -51.26 L -7.5 -51.22 L -9.06 -50.84 L -10.66 -50.84 L -12.21 -50.48 L -13.81 -50.37 L -15.38 -50.04 L -16.61 -49.07 L -17.08 -47.6 L -17.91 -46.22 L -18.05 -44.6 L -18.69 -43.16 L -19.27 -41.69 L -19.55 -40.13 L -20.51 -38.79 L -20.57 -37.16 L -20.95 -35.62 L -21.59 -34.17 L -21.83 -32.6 L -22.38 -31.12 L -23.32 -29.76 L -23.6 -28.52 L -24.46 -29.57 L -24.71 -31.18 L -25.24 -32.69 L -25.95 -34.13 L -26.69 -35.56 L -26.73 -37.25 L -27.42 -38.69 L -27.99 -40.19 L -28.81 -41.59 L -29.46 -43.05 L -29.69 -44.67 L -30.12 -46.22 L -30.67 -47.73 L -31.71 -49.05 L -32.27 -50.47 L -33.55 -50.87 L -35.08 -51.13 L -36.5 -51.91 L -38 -52.34 L -39.52 -52.74 L -41.15 -52.59 L -42.6 -53.29 L -44.14 -53.62 L -45.67 -53.97 L -47.29 -53.78 L -48.82 -54.09 L -50.35 -54.63 L -51.95 -54.16 L -53.5 -54.66 L -55.06 -54.47 L -56.65 -54.4 L -58.2 -54 L -59.31 -52.86 L -59.97 -51.57 L -60.45 -50.24 L -60.25 -48.83 L -60.34 -47.23 L -59.46 -45.97 L -58.62 -44.69 L -57.6 -43.54 L -56.68 -42.56 L -55.89 -41.13 L -56.11 -39.52 L -55.91 -37.95 L -55.82 -36.37 L -55.74 -34.79 L -55.45 -33.24 L -55.26 -31.67 L -54.81 -30.13 L -55.07 -28.51 L -54.64 -26.97 L -54.31 -25.42 L -54.21 -23.84 L -54.17 -22.25 L -54.08 -20.67 L -53.77 -19.11 L -53.57 -17.35 L -55.15 -18.09 L -56.42 -19.02 L -57.75 -19.82 L -59.08 -20.62 L -60.48 -21.3 L -61.86 -22.02 L -63.3 -22.63 L -64.71 -23.31 L -65.8 -24.53 L -67.13 -25.35 L -68.71 -25.72 L -70.11 -26.49 L -70.49 -28.15 L -70.9 -29.76 L -72.2 -30.91 L -72.75 -32.47 L -73.85 -33.68 L -74.73 -35.05 L -76 -36.09 L -77.23 -37.13 L -78.27 -38.42 L -79.74 -39.16 L -81.19 -39.87 L -82.57 -40.71 L -83.96 -41.59 L -85.65 -41.66 L -87.13 -42.35 L -88.76 -42.49 L -90.35 -42.8 L -91.95 -43.09 L -93.58 -43.08 L -95.22 -43.09 L -96.79 -42.71 L -98.37 -42.59 L -99.93 -42.27 L -101.48 -41.89 L -103.1 -41.68 L -104.52 -40.9 L -106.06 -40.4 L -107.42 -39.52 L -108.68 -38.51 L -110.09 -37.71 L -110.9 -36.22 L -112.28 -35.34 L -113.15 -33.98 L -114.25 -32.82 L -115.46 -31.7 L -116.16 -30.24 L -116.79 -28.76 L -117.68 -27.4 L -117.96 -25.79 L -118.19 -24.2 L -118.58 -22.66 L -118.85 -21.11 L -119.6 -19.58 L -119.2 -17.97 L -118.97 -16.41 L -118.92 -14.78 L -118.96 -13.1 L -118.3 -11.58 L -117.9 -9.98 L -117.09 -8.54 L -115.94 -7.31 L -115.46 -5.69 L -114.29 -4.53 L -113.48 -3.07 L -111.84 -2.42 L -110.61 -1.41 L -109.53 -0.14 L -108.08 0.59 L -106.53 1.1 L -105.23 2.19 L -103.54 2.23 L -102.07 3.02 L -100.44 3.16 L -98.82 3.2 L -97.21 3.34 L -95.62 3.01 L -94.06 2.66 L -92.32 2.84 L -90.92 1.78 L -89.51 2.62 L -88.45 3.87 L -87.15 4.75 L -85.5 5.13 L -84.48 6.43 L -83.06 7.15 L -81.61 7.81 L -80.58 9.11 L -79.21 9.9 L -77.77 10.6 L -76.33 11.28 L -75.1 12.28 L -74.01 13.49 L -72.36 13.85 L -71.24 15.03 L -69.73 15.61 L -68.48 16.57 L -67.27 17.64 L -65.66 17.87 L -64.11 18.38 L -62.49 18.57 L -61.03 19.44 L -59.42 19.69 L -57.74 19.65 L -56.15 20 L -54.69 20.86 L -53.11 21.23 L -51.53 21.61 L -49.83 21.46 L -48.28 21.98 L -46.68 22.24 L -45.16 22.88 L -43.66 23.59 L -42.04 23.79 L -40.47 24.21 L -38.8 24.19 L -37.23 24.6 L -35.73 25.33 L -34.09 25.45 L -32.6 26.21 L -31.02 26.55 L -29.32 26.44 L -27.89 27.42 L -26.24 27.54 L -24.6 27.64 L -23.01 27.99 L -21.59 29.03 L -19.94 29.08 L -18.41 29.66 L -16.75 29.7 L -15.29 30.56 L -13.6 30.28 L -12.15 30.94 L -10.63 31.34 L -9.13 31.81 L -7.62 32.27 L -6.1 32.63 L -4.59 33.06 L -2.93 32.88 L -1.43 33.35 L -0.02 34.22 L 1.49 34.64 L 3.17 34.39 L 4.61 35.1 L 6.17 35.32 L 7.7 35.5 L 9.15 35.96 L 10.64 36.33 L 11.94 37.25 L 13.46 37.51 L 14.72 38.39 L 16.08 39.02 L 17.48 39.65 L 18.41 40.92 L 19.85 41.78 L 21.12 42.83 L 22.18 44.14 L 23.77 44.8 L 24.82 46.15 L 26.21 47.07 L 27.83 47.61 L 29.06 48.76 L 30.46 49.64 L 31.98 50.33 L 33.72 50.39 L 35.21 51.11 L 36.82 51.42 L 38.4 51.98 L 39.98 51.8 L 41.53 52.04 L 43.1 52.22 L 44.63 51.75 L 46.18 51.64 L 47.72 51.38 L 49.15 50.72 L 50.71 50.46 L 52.19 49.95 L 53.69 49.42 L 54.66 48 L 56.32 47.65 L 57.35 46.44 L 58.34 45.21 L 59.59 44.26 L 60.6 43.03 L 61.3 41.57 L 62.56 40.48 L 63.27 39.04 L 63.66 37.46 L 64.17 35.96 L 64.49 34.41 L 65.21 32.95 L 65.25 31.34 L 65.68 29.78 L 65.52 28.18 L 65.64 26.58 L 65.08 25.04 L 64.72 23.5 L 64.39 21.96 L 64.48 20.27 L 63.9 18.77 L 63.16 17.34 L 62.56 15.84 L 61.19 14.8 L 60.25 13.54 L 59.39 12.21 L 58.66 10.71 L 57.29 9.81 L 55.87 9.05 L 54.65 8.04 L 53.27 7.27 L 51.86 6.57 L 50.5 5.76 L 49.07 5.03 L 47.53 4.45 L 45.82 4.46 L 44.26 3.94 L 42.73 3.11 L 41.04 3.25 L 39.39 3.18 L 37.75 3.41 L 36.1 3.31 L 34.49 3.7 L 32.87 3.96 L 31.32 4.51 L 29.62 4.73 L 28.19 5.61 L 27.06 6.9 L 25.34 7.35 L 24.37 8.81 L 22.95 7.92 L 21.38 7.52 L 19.76 7.25 L 18.4 6.26 L 16.88 5.72 L 15.19 5.64 L 13.68 5.08 L 12.12 4.66 L 10.62 4.04 L 9.26 3.07 L 7.61 2.89 L 6.26 1.85 L 4.74 1.31 L 3.04 1.24 L 1.5 0.78 Z M -0 0 " transform="matrix(1, 0, 0, -1, 567.95, 394.3)"/>
<path fill-rule="nonzero" fill="rgb(100%, 100%, 100%)" fill-opacity="1" stroke-width="4" stroke-linecap="round" stroke-linejoin="round" stroke="rgb(13.73%, 12.16%, 12.55%)" stroke-opacity="1" stroke-miterlimit="10" d="M -0 0 L -2.24 1.27 L -4.71 1.6 L -6.92 2.55 L -9.19 3.35 L -11.39 4.42 L -13.78 4.82 L -16.07 5.63 L -18.33 6.62 L -20.82 6.5 L -23.12 7.39 L -25.52 7.69 L -27.92 8.07 L -30.39 7.63 L -32.76 8.55 L -35.19 8.39 L -37.6 7.85 L -40.03 8.19 L -42.4 7.51 L -44.81 7.4 L -47.29 7.51 L -49.64 6.91 L -51.95 6.14 L -54.22 5.3 L -56.57 4.69 L -58.9 3.95 L -60.74 2.19 L -62.83 1.03 L -65.06 0.07 L -66.87 -1.53 L -69.07 -2.63 L -70.97 -4.15 L -72.38 -6.16 L -74.33 -7.63 L -75.83 -9.54 L -77.42 -11.37 L -79.16 -13.11 L -79.91 -15.52 L -81.39 -17.45 L -82.62 -19.5 L -83.81 -21.58 L -85 -23.67 L -85.74 -25.96 L -86.11 -28.38 L -87.17 -30.53 L -88.32 -32.67 L -88.86 -35.01 L -89.48 -37.33 L -89.63 -39.74 L -89.67 -42.15 L -89.9 -44.51 L -90.58 -46.84 L -90.85 -49.22 L -90.31 -51.61 L -90.91 -54.01 L -90.53 -56.38 L -90.46 -58.78 L -89.95 -61.12 L -89.53 -63.47 L -88.84 -65.76 L -89 -68.25 L -87.9 -70.43 L -87.54 -72.83 L -86.53 -75.01 L -85.26 -77.08 L -84.62 -79.4 L -83.48 -81.5 L -82.68 -83.78 L -80.92 -85.53 L -80.21 -87.89 L -78.5 -89.62 L -77.71 -91.98 L -76.01 -93.7 L -74.27 -95.37 L -73.2 -97.59 L -71.71 -99.48 L -69.52 -100.69 L -68.03 -102.58 L -66.12 -104.03 L -64.71 -106.02 L -62.48 -107.09 L -60.78 -108.77 L -59.02 -110.4 L -56.88 -111.51 L -54.96 -112.92 L -53.18 -114.54 L -50.97 -115.51 L -49.17 -117.13 L -46.93 -118.04 L -44.85 -119.19 L -42.78 -120.38 L -40.6 -121.36 L -38.72 -122.97 L -36.39 -123.63 L -34.25 -124.71 L -31.86 -125.18 L -29.66 -126.11 L -27.34 -126.69 L -25.18 -127.74 L -23.1 -129.05 L -20.73 -129.52 L -18.28 -129.64 L -15.98 -130.27 L -13.77 -131.26 L -11.56 -132.27 L -9.05 -132.04 L -6.88 -133.33 L -4.35 -132.88 L -2.15 -134.11 L 0.21 -134.52 L 2.68 -134.22 L 5.03 -134.66 L 7.33 -135.42 L 9.74 -135.4 L 12.13 -135.51 L 14.45 -136.38 L 16.89 -135.97 L 19.22 -136.66 L 21.61 -136.77 L 24.02 -136.52 L 26.39 -136.86 L 28.78 -137.06 L 31.16 -137 L 33.54 -137.65 L 35.94 -136.87 L 38.32 -136.99 L 40.71 -137.24 L 43.08 -136.69 L 45.46 -136.63 L 47.88 -137.13 L 50.28 -137.17 L 52.6 -136.34 L 54.96 -135.98 L 57.33 -135.7 L 59.77 -136 L 62.14 -135.64 L 64.36 -134.47 L 66.85 -134.8 L 69.04 -133.61 L 71.5 -133.65 L 73.7 -132.6 L 76.13 -132.45 L 78.34 -131.53 L 80.69 -131.03 L 82.99 -130.37 L 85.19 -129.44 L 87.55 -128.91 L 89.53 -127.44 L 91.78 -126.65 L 94 -125.77 L 96.13 -124.7 L 98.36 -123.83 L 100.22 -122.26 L 102.27 -121.05 L 104.62 -120.32 L 106.57 -118.92 L 108.26 -117.18 L 110.61 -116.35 L 112.24 -114.55 L 113.8 -112.71 L 116.01 -111.62 L 117.75 -109.98 L 119.31 -108.16 L 120.65 -106.16 L 122.23 -104.39 L 124.16 -102.89 L 125.17 -100.67 L 126.51 -98.71 L 128.15 -96.93 L 129.59 -95.01 L 130.54 -92.8 L 131.69 -90.7 L 132.08 -88.27 L 133.22 -86.17 L 134.17 -83.97 L 134.93 -81.7 L 134.99 -79.26 L 135.82 -76.98 L 135.77 -74.55 L 136.06 -72.18 L 136.15 -69.79 L 136.27 -67.4 L 136.42 -64.99 L 136.51 -62.56 L 135.41 -60.29 L 135.08 -57.93 L 134.51 -55.61 L 133.97 -53.28 L 133.27 -50.99 L 132.22 -48.84 L 131.81 -46.39 L 130.03 -44.61 L 128.97 -42.47 L 127.75 -40.41 L 126.67 -38.24 L 125.18 -36.34 L 123.3 -34.79 L 121.56 -33.16 L 120.09 -31.22 L 117.95 -30.05 L 116.09 -28.56 L 114.61 -26.48 L 112.35 -25.55 L 110.43 -24.04 L 108.27 -22.95 L 105.91 -22.31 L 103.72 -21.3 L 101.3 -20.98 L 98.98 -20.4 L 96.77 -19.34 L 94.3 -19.47 L 92.04 -18.42 L 89.65 -18.01 L 87.2 -18.78 L 84.81 -18.32 L 82.4 -18.19 L 79.99 -18.18 L 77.62 -18.74 L 75.32 -19.53 L 72.87 -19.46 L 70.43 -19.59 L 67.95 -20.65 L 70.42 -19.73 L 72.21 -18.11 L 74.19 -16.83 L 76.2 -15.6 L 78.41 -14.66 L 80.32 -13.27 L 82.33 -12.03 L 84.4 -10.85 L 86.19 -9.29 L 88.23 -8.06 L 90.06 -6.56 L 91.67 -4.77 L 93.39 -3.14 L 95.1 -1.51 L 96.83 0.09 L 98.65 1.6 L 100.39 3.19 L 101.96 4.96 L 104.23 6.05 L 105.24 8.35 L 107.35 9.64 L 108.92 11.42 L 109.97 13.62 L 111.47 15.45 L 113.08 17.21 L 114.36 19.21 L 115.17 21.49 L 116.65 23.36 L 117.79 25.44 L 118.69 27.63 L 119.76 29.73 L 120.42 32.01 L 121.58 34.08 L 122.48 36.28 L 122.77 38.66 L 123.79 40.82 L 123.79 43.24 L 124.37 45.52 L 124.91 47.82 L 124.74 50.18 L 124.57 52.51 L 124.95 54.91 L 124.62 57.28 L 123.79 59.53 L 122.67 61.64 L 121.07 63.41 L 119.46 65.08 L 117.88 66.81 L 116.17 68.51 L 113.7 68.89 L 111.57 69.79 L 109.52 71.1 L 107.18 71.5 L 104.82 71.89 L 102.51 71.15 L 100.21 70.72 L 97.74 70.64 L 95.81 69.08 L 93.62 68.2 L 91.73 66.74 L 89.45 65.92 L 87.23 64.96 L 85.3 63.55 L 83.81 61.59 L 81.89 60.19 L 79.79 59 L 78.26 57.13 L 76.79 55.23 L 74.99 53.69 L 73.05 52.28 L 71.51 50.47 L 70.02 48.61 L 68.32 46.96 L 66.23 45.63 L 64.73 43.79 L 63.13 42.02 L 62.18 39.72 L 60.45 38.07 L 59.28 35.98 L 57.79 34.12 L 56.26 32.31 L 54.86 30.39 L 53.52 28.43 L 52.04 26.56 L 50.85 24.5 L 48.31 20.48 L 46.78 18.62 L 45.81 16.44 L 44.27 14.57 L 43.52 12.27 L 42.07 10.34 L 41.09 8.17 L 40.6 5.77 L 39.75 3.55 L 38.86 1.35 L 37.79 -0.77 L 36.77 -3.08 L 37.79 -0.75 L 39.13 1.29 L 39.51 3.76 L 41.06 5.71 L 41.74 8.03 L 42.52 10.31 L 43.56 12.48 L 44.48 14.71 L 44.92 17.12 L 45.72 19.39 L 46.99 21.48 L 48.17 23.61 L 48.22 26.15 L 49.18 28.36 L 49.99 30.63 L 51.5 32.65 L 51.89 35.06 L 52.16 37.51 L 53.06 39.74 L 53.75 42.04 L 54.63 44.29 L 55.38 46.58 L 56.42 48.79 L 56.52 51.26 L 57.05 53.61 L 57.97 55.87 L 57.92 58.34 L 58.63 60.65 L 58.84 63.06 L 59.29 65.42 L 59.66 67.79 L 60.65 70.1 L 60.21 72.56 L 60.77 74.95 L 60.75 77.37 L 60.55 79.78 L 60.31 82.17 L 59.61 84.49 L 59.63 86.97 L 58.67 89.2 L 57.87 91.53 L 56.32 93.45 L 54.13 94.62 L 52.59 96.54 L 50.3 97.38 L 48.52 99.16 L 46.25 100.05 L 43.78 100.15 L 41.43 100.4 L 39.08 100.38 L 36.71 100.61 L 34.32 100.45 L 31.98 99.87 L 29.79 98.89 L 27.59 97.92 L 25.67 96.48 L 23.84 94.95 L 22.17 93.25 L 20.32 91.76 L 18.48 90.19 L 17.1 88.23 L 15.91 86.15 L 14.48 84.24 L 12.85 82.41 L 11.79 80.25 L 10.84 78.04 L 9.81 75.87 L 9.46 73.44 L 7.96 71.45 L 7.44 69.09 L 7.32 66.63 L 6.67 64.34 L 6.12 62.02 L 4.72 59.87 L 4.66 57.43 L 4.41 55.03 L 4.11 52.65 L 3.76 50.28 L 3.22 47.94 L 2.6 45.61 L 2.43 43.21 L 1.89 40.85 L 1.61 38.47 L 1.81 36.03 L 0.75 33.73 L 0.48 31.34 L 1.03 28.88 L 0.19 26.53 L 0.12 24.13 L 0.45 21.7 L 0.43 19.3 L -0.17 16.93 L 0.37 14.51 L -0.34 12.13 L -0.61 9.73 L -0.23 7.33 L -0.05 4.93 L -0.45 2.53 Z M -0 0 " transform="matrix(1, 0, 0, -1, 298.54, 241.22)"/>
<path fill-rule="nonzero" fill="rgb(13.73%, 12.16%, 12.55%)" fill-opacity="1" d="M 299.47 293.45 L 299.71 294.58 L 300.25 295.61 L 302.21 295.86 L 303.37 295.11 L 304 293.89 L 304.52 292.64 L 304.91 291.34 L 305.4 290.07 L 305.34 288.72 L 304.97 287.54 L 303.87 287.05 L 302.48 287.19 L 301.23 287.96 L 300.56 289.28 L 299.8 290.54 L 299.43 291.97 Z M 299.47 293.45 "/>
<path fill-rule="nonzero" fill="rgb(13.73%, 12.16%, 12.55%)" fill-opacity="1" d="M 336.19 301.72 L 336.64 303.02 L 337.1 304.28 L 338.13 304.79 L 339.2 304.4 L 339.89 303.42 L 340.71 302.3 L 341.16 300.98 L 341.57 299.64 L 341.88 298.24 L 341.34 296.92 L 340.62 295.74 L 339.29 295.5 L 337.95 296.09 L 337.2 297.39 L 336.89 298.86 L 336.47 300.27 Z M 336.19 301.72 "/>
<path fill-rule="nonzero" fill="rgb(31.33%, 42.5%, 74.32%)" fill-opacity="1" d="M 310.36 308.62 L 308.99 309.52 L 308.47 311.11 L 307.66 312.43 L 306.84 313.84 L 307.03 315.46 L 306.91 316.74 L 307.26 317.97 L 307.78 319.17 L 308.57 320.28 L 309.65 321.1 L 310.96 321.45 L 312.13 322.13 L 313.5 322.21 L 314.83 322.27 L 316.17 322.62 L 317.42 321.92 L 318.72 321.71 L 319.79 320.95 L 320.95 320.32 L 321.79 319.3 L 322.32 318.13 L 322.76 316.93 L 323.04 315.67 L 323.38 314.01 L 323.07 312.34 L 322.73 310.93 L 321.84 309.8 L 320.9 308.75 L 319.71 308.02 L 318.38 307.63 L 317.06 307.2 L 315.68 307.08 L 314.32 307.38 L 312.85 307.25 L 311.53 307.82 Z M 310.36 308.62 "/>
<path fill-rule="nonzero" fill="rgb(100%, 100%, 100%)" fill-opacity="1" stroke-width="5" stroke-linecap="round" stroke-linejoin="round" stroke="rgb(13.73%, 12.16%, 12.55%)" stroke-opacity="1" stroke-miterlimit="10" d="M -0 0 L 0.05 -1.34 L 0.29 -2.66 L 0.3 -3.99 L 0.39 -5.32 L 0.8 -6.59 L 0.94 -7.93 L 1.22 -8.63 L 2.02 -8.54 L 3.26 -7.97 L 4.34 -7.05 L 5.67 -6.69 L 6.92 -6.12 L 8.06 -5.35 L 9.12 -4.47 L 10.37 -3.9 L 11.47 -3.1 " transform="matrix(1, 0, 0, -1, 302.93, 336.85)"/>
<path fill-rule="nonzero" fill="rgb(13.73%, 12.16%, 12.55%)" fill-opacity="1" stroke-width="4" stroke-linecap="round" stroke-linejoin="round" stroke="rgb(13.73%, 12.16%, 12.55%)" stroke-opacity="1" stroke-miterlimit="10" d="M 0 0 L -1.12 0.67 L -2.37 1.31 L -3.57 2.08 L -4.94 2.47 L -6.17 3.2 L -7.57 3.47 L -8.86 4.09 L -10.21 4.52 L -11.63 4.68 L -13.03 4.84 L -14.43 5 L -15.79 5.52 L -17.21 5.59 L -18.62 5.22 L -20.03 5.22 L -21.42 5.05 L -22.82 4.68 L -24.21 4.27 L -25.55 3.72 L -26.76 2.93 L -28.22 2.59 L -29.3 1.57 L -30.6 0.9 L -31.52 -0.27 L -32.63 -1.18 L -33.75 -2.11 L -34.76 -3.14 L -35.52 -4.39 L -36.34 -5.58 L -37.41 -6.61 L -38.21 -7.83 L -38.75 -9.19 L -39.36 -10.5 L -39.68 -11.93 L -40.45 -13.19 L -40.98 -14.54 L -40.97 -16.04 L -41.46 -17.42 L -41.71 -18.82 L -41.65 -20.25 L -42.05 -21.66 L -41.78 -23.08 L -41.8 -24.51 L -41.53 -25.9 L -41.33 -27.31 L -41.14 -28.72 L -40.75 -30.1 L -40.07 -31.36 L -39.49 -32.65 L -39.04 -34.03 L -38 -35.06 L -37.23 -36.24 L -36.47 -37.46 L -35.3 -38.3 L -34.22 -39.21 L -33.38 -40.42 L -32.17 -41.19 L -31.04 -41.69 L -29.96 -40.79 L -29.16 -39.59 L -28.16 -38.53 L -27.62 -37.14 L -26.53 -36.16 L -25.71 -34.97 L -24.77 -33.86 L -24.18 -32.5 L -23.32 -31.33 L -22.51 -30.14 L -21.35 -29.2 L -20.61 -27.95 L -19.72 -26.81 L -18.81 -25.69 L -17.96 -24.51 L -17.16 -23.31 L -16.38 -22.09 L -15.33 -21.07 L -14.45 -19.92 L -13.88 -18.54 L -12.81 -17.53 L -12.06 -16.29 L -11.26 -15.07 L -10.11 -14.13 L -9.48 -12.8 L -8.48 -11.74 L -7.51 -10.66 L -6.67 -9.48 L -6.03 -8.14 L -5.22 -6.94 L -4.39 -5.75 L -3.42 -4.67 L -2.43 -3.59 L -1.54 -2.44 L -0.92 -1.1 Z M 0 0 " transform="matrix(1, 0, 0, -1, 438.14, 270.45)"/>
<path fill-rule="nonzero" fill="rgb(13.73%, 12.16%, 12.55%)" fill-opacity="1" stroke-width="4" stroke-linecap="round" stroke-linejoin="round" stroke="rgb(13.73%, 12.16%, 12.55%)" stroke-opacity="1" stroke-miterlimit="10" d="M -0 -0 L 0.56 1.4 L 1.17 2.68 L 1.56 4.04 L 2.09 5.36 L 2.13 6.8 L 2.51 8.17 L 3 9.52 L 3.18 10.93 L 2.94 12.36 L 2.94 13.77 L 2.86 15.17 L 3.02 16.63 L 2.64 18.01 L 2.32 19.41 L 1.67 20.68 L 0.87 21.87 L 0.28 23.16 L -0.54 24.31 L -1.22 25.58 L -2.22 26.61 L -3.42 27.4 L -4.42 28.43 L -5.73 29.04 L -6.94 29.85 L -8.03 30.87 L -9.5 31.22 L -10.72 32.04 L -11.97 32.81 L -13.32 33.39 L -14.84 33.46 L -16.16 34.1 L -17.61 34.32 L -19 34.81 L -20.48 34.69 L -21.9 35.23 L -23.36 35.04 L -24.82 34.94 L -26.25 34.68 L -27.66 34.33 L -29.05 33.95 L -30.4 33.42 L -31.88 33.16 L -33.14 32.41 L -34.2 31.36 L -35.35 30.49 L -36.74 29.89 L -37.66 28.73 L -38.75 27.76 L -39.8 26.73 L -40.66 25.55 L -41.53 24.38 L -42.07 22.99 L -42.98 21.84 L -43.53 20.48 L -44.28 19.32 L -43.07 18.63 L -41.66 18.33 L -40.43 17.6 L -39.13 17.03 L -37.75 16.66 L -36.57 15.81 L -35.16 15.5 L -33.87 14.9 L -32.69 14.06 L -31.3 13.71 L -29.97 13.21 L -28.66 12.64 L -27.51 11.75 L -26.14 11.33 L -24.85 10.73 L -23.47 10.34 L -22.25 9.57 L -20.91 9.12 L -19.55 8.67 L -18.33 7.9 L -17 7.41 L -15.68 6.88 L -14.44 6.17 L -13.06 5.76 L -11.73 5.26 L -10.37 4.82 L -9.25 3.84 L -7.78 3.66 L -6.54 2.92 L -5.29 2.22 L -3.92 1.81 L -2.61 1.25 L -1.38 0.52 Z M -0 -0 " transform="matrix(1, 0, 0, -1, 618.2, 256.08)"/>
<path fill-rule="nonzero" fill="rgb(100%, 100%, 100%)" fill-opacity="1" stroke-width="4" stroke-linecap="round" stroke-linejoin="round" stroke="rgb(13.73%, 12.16%, 12.55%)" stroke-opacity="1" stroke-miterlimit="10" d="M 0 -0 L -2.22 -0.91 L -4.72 -0.78 L -6.9 -1.83 L -9.26 -2.25 L -11.48 -3.14 L -13.84 -3.59 L -16.14 -4.23 L -18.25 -5.41 L -20.6 -5.91 L -22.89 -6.58 L -25.07 -7.57 L -27.16 -8.77 L -29.59 -9.11 L -31.65 -10.37 L -33.93 -11.11 L -36.05 -12.19 L -38.13 -13.37 L -40.31 -14.33 L -42.43 -15.44 L -44.7 -16.23 L -46.75 -17.44 L -48.85 -18.59 L -50.91 -19.79 L -52.76 -21.34 L -54.91 -22.39 L -56.77 -23.9 L -58.82 -25.11 L -60.89 -26.31 L -62.67 -27.91 L -65.03 -28.72 L -66.65 -30.52 L -68.72 -31.75 L -70.44 -33.42 L -71.96 -35.3 L -73.85 -36.74 L -75.7 -38.25 L -77.18 -40.14 L -79.12 -41.58 L -80.97 -43.12 L -82.54 -44.93 L -84.05 -46.78 L -84.93 -49.11 L -86.76 -50.73 L -88.21 -52.63 L -89.26 -54.79 L -90.02 -57.09 L -91.36 -59.06 L -92.2 -61.29 L -93.33 -63.39 L -94.69 -65.41 L -94.91 -67.86 L -95.88 -70.05 L -96.01 -72.46 L -97.32 -74.63 L -97.7 -77 L -97.45 -79.43 L -97.78 -81.8 L -98.14 -84.18 L -97.46 -86.56 L -97.93 -88.97 L -97.2 -91.3 L -97.1 -93.69 L -96.92 -96.08 L -96.39 -98.42 L -96.21 -100.82 L -95.81 -103.19 L -94.47 -105.32 L -94.37 -107.76 L -93.73 -110.07 L -92.42 -112.15 L -91.55 -114.36 L -91.3 -116.84 L -89.7 -118.73 L -88.81 -120.96 L -87.89 -123.19 L -86.1 -124.88 L -84.85 -126.9 L -83.63 -128.96 L -82.33 -130.99 L -80.59 -132.65 L -78.56 -133.99 L -77.33 -136.16 L -75.21 -137.36 L -73.58 -139.17 L -71.54 -140.44 L -69.38 -141.49 L -67.41 -142.85 L -65.23 -143.83 L -63.19 -145.09 L -60.76 -145.47 L -58.61 -146.49 L -56.54 -147.79 L -54.27 -148.55 L -51.81 -148.6 L -49.5 -149.18 L -47.18 -149.69 L -44.96 -150.8 L -42.57 -151 L -40.22 -151.48 L -37.81 -151.42 L -35.4 -151.21 L -33.04 -151.6 L -30.66 -151.66 L -28.29 -152.25 L -25.9 -152.23 L -23.51 -151.77 L -21.12 -152.05 L -18.76 -151.46 L -16.37 -151.38 L -13.95 -151.83 L -11.63 -150.86 L -9.22 -150.97 L -6.81 -151.06 L -4.43 -150.82 L -2.18 -149.65 L 0.24 -149.73 L 2.56 -149.1 L 4.98 -149.13 L 7.22 -148.11 L 9.72 -148.49 L 11.99 -147.65 L 14.32 -147.12 L 16.63 -146.49 L 18.93 -145.85 L 21.26 -145.31 L 23.56 -144.68 L 26.05 -144.77 L 28.34 -144.04 L 30.5 -142.81 L 32.8 -142.12 L 35.33 -142.24 L 37.53 -141.17 L 39.89 -140.68 L 42.26 -140.22 L 44.53 -139.4 L 46.84 -138.73 L 48.95 -137.41 L 51.34 -137.01 L 53.52 -135.92 L 55.83 -135.28 L 58.2 -134.77 L 60.28 -133.45 L 62.66 -132.95 L 64.91 -132.11 L 67 -130.86 L 69.46 -130.53 L 71.48 -129.12 L 73.73 -128.27 L 76.16 -127.83 L 78.17 -126.45 L 80.29 -125.31 L 82.45 -124.27 L 84.92 -123.84 L 86.92 -122.46 L 89.08 -121.4 L 91.02 -119.93 L 93.31 -119.1 L 95.27 -117.68 L 97.18 -116.19 L 99.43 -115.25 L 101.35 -113.78 L 103.27 -112.34 L 105.39 -111.16 L 107.08 -109.42 L 108.86 -107.8 L 110.5 -106.04 L 112.88 -105.07 L 114.04 -102.82 L 115.97 -101.36 L 117.8 -99.77 L 119.12 -97.73 L 120.61 -95.84 L 122.31 -94.1 L 123.15 -91.77 L 124.46 -89.77 L 125.95 -87.85 L 127.08 -85.72 L 128.21 -83.59 L 128.65 -81.17 L 129.68 -78.99 L 130.01 -76.59 L 130.82 -74.31 L 131.05 -71.92 L 131.91 -69.62 L 132.28 -67.23 L 132.4 -64.81 L 131.74 -62.39 L 131.72 -60.01 L 131.72 -57.61 L 131.31 -55.25 L 131.79 -52.78 L 131.49 -50.38 L 130.86 -48.05 L 129.77 -45.84 L 129.55 -43.45 L 129.28 -41.04 L 128.43 -38.79 L 127.73 -36.49 L 126.91 -34.24 L 125.74 -32.13 L 124.52 -30.07 L 123.32 -28 L 122.61 -25.64 L 121.16 -23.71 L 119.24 -22.14 L 118.15 -19.98 L 116.67 -18.11 L 115.29 -16.13 L 113.44 -14.59 L 111.86 -12.79 L 109.99 -11.28 L 108.21 -9.68 L 106 -8.64 L 104.18 -7.11 L 102.54 -5.25 L 100.06 -4.73 L 98.24 -3.1 L 95.92 -2.4 L 93.86 -1.19 L 91.82 0.1 L 89.38 0.44 L 87.15 1.27 L 85.09 2.62 L 82.79 3.29 L 80.52 4.08 L 78.17 4.57 L 75.71 4.52 L 73.46 5.45 L 71 5.22 L 68.65 5.58 L 66.36 6.5 L 63.99 6.86 L 61.58 6.77 L 59.18 6.81 L 56.81 7.23 L 54.4 6.74 L 52.02 7.35 L 49.62 7.21 L 47.24 6.78 L 44.83 7.24 L 42.45 6.96 L 40.09 6.37 L 37.65 6.86 L 35.29 6.37 L 32.97 5.56 L 30.6 5.31 L 28.23 5.01 L 25.83 4.99 L 23.51 4.34 L 21.13 4.09 L 18.66 4.38 L 16.42 3.26 L 14.04 3.02 L 11.75 2.26 L 9.33 2.19 L 7.04 1.41 L 4.55 1.6 L 2.33 0.55 Z M 0 -0 " transform="matrix(1, 0, 0, -1, 503.09, 241.27)"/>
<path fill-rule="nonzero" fill="rgb(31.33%, 42.5%, 74.32%)" fill-opacity="1" d="M 527.76 356.98 L 528.29 358.37 L 528.23 359.91 L 528.86 361.27 L 529.8 362.43 L 531.02 363.27 L 532.18 364.06 L 533.4 364.96 L 535.18 364.7 L 536.88 364.48 L 538.27 364.48 L 539.63 364.23 L 540.8 363.5 L 542.03 362.87 L 542.81 361.68 L 543.92 360.9 L 544.87 359.91 L 545.59 358.74 L 545.68 357.34 L 546.22 356.07 L 545.96 354.72 L 545.83 353.41 L 545.4 352.17 L 544.84 350.98 L 544.09 349.77 L 543.17 348.63 L 541.64 348.4 L 540.4 347.8 L 539.05 347.52 L 537.67 347.32 L 536.27 347.37 L 534.93 347.79 L 533.42 347.8 L 532.43 348.98 L 531.23 349.68 L 530.16 350.57 L 529.05 351.5 L 528.33 352.76 L 528.14 354.2 L 528 355.58 Z M 527.76 356.98 "/>
<path fill-rule="nonzero" fill="rgb(13.73%, 12.16%, 12.55%)" fill-opacity="1" d="M 498.49 348.74 L 497.41 349.75 L 496.2 350.63 L 495.46 351.92 L 495.26 353.38 L 495.25 354.84 L 495.96 356.15 L 497.05 357.11 L 498.47 357.42 L 499.89 357.18 L 501.27 356.95 L 502.66 356.28 L 504.29 356.12 L 505.53 355.15 L 506.65 354.07 L 508.15 353.41 L 508.52 352.17 L 509.19 351.27 L 509.88 350.2 L 509.76 348.93 L 509.52 347.66 L 508.14 346.86 L 506.95 345.86 L 505.4 346.08 L 503.87 346.01 L 502.46 346.63 L 501.07 347.2 L 499.75 347.94 Z M 498.49 348.74 "/>
<path fill-rule="nonzero" fill="rgb(13.73%, 12.16%, 12.55%)" fill-opacity="1" d="M 560.82 331.02 L 559.49 331.87 L 558.04 332.58 L 557.11 333.91 L 557.11 335.51 L 557.08 337.06 L 558.04 338.29 L 559.13 338.79 L 560.29 339.18 L 561.53 339.25 L 563.04 339.29 L 564.55 339.21 L 566 338.68 L 567.58 338.79 L 568.75 337.98 L 570.1 337.55 L 570.68 336.34 L 571.17 335.16 L 571.29 333.86 L 571 332.55 L 570.05 331.5 L 568.88 330.77 L 567.54 330.47 L 566.22 330 L 564.83 330.05 L 563.51 330.56 L 562.2 330.89 Z M 560.82 331.02 "/>
<path fill="none" stroke-width="5" stroke-linecap="round" stroke-linejoin="round" stroke="rgb(13.73%, 12.16%, 12.55%)" stroke-opacity="1" stroke-miterlimit="10" d="M 0 0 L -1.4 -0.11 L -2.75 -0.47 L -4.06 -0.95 L -5.34 -1.48 L -6.64 -2 L -7.83 -2.73 L -8.99 -3.49 L -10.2 -4.17 " transform="matrix(1, 0, 0, -1, 501.85, 331.05)"/>
<path fill="none" stroke-width="5" stroke-linecap="round" stroke-linejoin="round" stroke="rgb(13.73%, 12.16%, 12.55%)" stroke-opacity="1" stroke-miterlimit="10" d="M -0 -0 L 1.54 -0.03 L 3.02 0.4 L 4.51 0.68 L 6.04 0.76 L 7.52 1.1 L 9.03 1.33 L 10.52 1.65 " transform="matrix(1, 0, 0, -1, 551.27, 318.88)"/>
<path fill-rule="nonzero" fill="rgb(100%, 100%, 100%)" fill-opacity="1" stroke-width="4" stroke-linecap="round" stroke-linejoin="round" stroke="rgb(13.73%, 12.16%, 12.55%)" stroke-opacity="1" stroke-miterlimit="10" d="M 0 0 L -1.41 2.3 L -3.53 3.51 L -5.36 5.04 L -7.34 6.43 L -9.72 6.95 L -11.93 7.81 L -14.19 8.59 L -16.51 9.21 L -18.92 9.3 L -21.31 8.98 L -23.72 9.5 L -26.08 8.94 L -28.5 8.96 L -30.84 8.42 L -33.13 7.67 L -35.48 7.19 L -37.76 6.33 L -40.1 5.63 L -42.08 4.15 L -44.25 3.09 L -46.5 2.08 L -48.44 0.59 L -49.88 -1.43 L -51.48 -3.23 L -52.91 -5.16 L -54.63 -6.96 L -55.6 -9.21 L -56.63 -11.44 L -57.1 -13.85 L -57.32 -16.28 L -57.87 -18.64 L -58.04 -21.06 L -58.5 -23.48 L -58.37 -25.92 L -57.79 -28.31 L -57.67 -30.75 L -56.77 -33.04 L -56.16 -35.38 L -55.84 -37.84 L -54.35 -39.86 L -53.51 -42.14 L -52.51 -44.38 L -51.12 -46.4 L -48.98 -47.72 L -47.31 -49.5 L -45.17 -50.63 L -43.16 -52.04 L -40.74 -52.53 L -38.64 -53.92 L -36.19 -54.24 L -33.8 -54.69 L -31.38 -54.91 L -28.96 -55.01 L -26.53 -55.08 L -24.11 -54.96 L -21.64 -55.29 L -19.23 -54.85 L -16.94 -53.9 L -14.61 -53.25 L -12.11 -53.12 L -9.94 -51.94 L -7.65 -51.1 L -5.39 -50.15 L -3.32 -48.84 L -1.26 -47.53 L 0.4 -45.69 L 2.45 -44.35 L 4.05 -42.5 L 5.93 -40.79 L 7.58 -42.59 L 9.72 -43.63 L 11.58 -45.06 L 13.67 -46.13 L 15.94 -46.74 L 17.99 -47.97 L 20.36 -48.22 L 22.62 -48.81 L 24.86 -49.66 L 27.24 -49.64 L 29.58 -49.74 L 31.93 -49.85 L 34.38 -50.39 L 36.82 -49.98 L 39.26 -49.72 L 41.6 -48.98 L 44.05 -48.68 L 46.33 -47.76 L 48.53 -46.68 L 50.89 -45.96 L 53 -44.71 L 55.06 -43.39 L 57.22 -42.21 L 59.13 -40.31 L 61.05 -38.46 L 63.04 -36.43 L 64.99 -38.33 L 67.44 -38.86 L 69.54 -40.08 L 71.74 -41.12 L 74.13 -41.6 L 76.48 -42.19 L 78.81 -42.92 L 81.28 -42.8 L 83.68 -43.08 L 86.09 -43.47 L 88.53 -43.51 L 90.93 -43.48 L 93.25 -42.8 L 95.63 -42.51 L 97.85 -41.59 L 100.15 -40.96 L 102.25 -39.82 L 104.55 -39.05 L 106.64 -37.85 L 108.57 -36.41 L 110.03 -34.45 L 111.75 -32.81 L 113.4 -31.11 L 114.74 -29.15 L 116.58 -27.52 L 117.83 -25.46 L 118.74 -23.24 L 119.2 -20.86 L 120.2 -18.69 L 121.06 -16.43 L 121.36 -14.06 L 121.65 -11.69 L 121.71 -9.3 L 121.35 -6.93 L 120.81 -4.62 L 120.16 -2.34 L 119.82 0.06 L 118.73 2.19 L 117.14 4.02 L 116.15 6.18 L 114.74 8.08 L 113.33 10.01 L 111.49 11.52 L 109.78 13.17 L 107.8 14.49 L 105.84 15.82 L 103.56 16.57 L 101.48 17.68 L 99.43 18.98 L 96.98 19.02 L 94.78 19.96 L 92.41 20.04 L 90.1 20.49 L 87.76 20.95 L 85.39 20.54 L 83.05 20.46 L 80.66 20.73 L 78.32 20.37 L 75.97 20.02 L 73.69 19.34 L 71.58 18.18 L 69.25 17.67 L 67.32 16.22 L 65.26 15.12 L 63 14.28 L 61.04 12.94 L 59.42 11.17 L 58 9.32 L 57.02 11.57 L 55.2 13.26 L 53.85 15.34 L 51.91 16.87 L 49.73 18.02 L 47.81 19.6 L 45.52 20.49 L 43.1 20.98 L 40.88 22.13 L 38.42 22.38 L 35.95 22.25 L 33.53 22.43 L 31.1 22.46 L 28.65 22.61 L 26.24 22.17 L 23.8 21.95 L 21.27 22 L 19.03 20.81 L 16.67 20.13 L 14.54 18.91 L 12.24 17.99 L 10.34 16.42 L 8.08 15.27 L 6.62 13.23 L 4.84 11.5 L 3.62 9.34 L 2.54 7.13 L 1.41 4.94 L 0.66 2.61 Z M 0 0 " transform="matrix(1, 0, 0, -1, 472.51, 215.65)"/>
<path fill-rule="nonzero" fill="rgb(31.54%, 43.26%, 74.79%)" fill-opacity="1" d="M 437.61 240.45 C 437.01 241.58 437.1 243.04 437.83 244.08 C 438.14 244.52 438.56 244.88 439.05 245.09 C 439.61 245.32 440.23 245.33 440.83 245.31 C 441.65 245.29 442.51 245.21 443.19 244.74 C 444.3 243.98 444.56 242.44 444.4 241.11 C 444.36 240.8 444.3 240.48 444.16 240.21 C 443.93 239.79 443.52 239.51 443.13 239.24 C 441.34 238.02 438.7 238.44 437.61 240.45 "/>
<path fill-rule="nonzero" fill="rgb(100%, 100%, 100%)" fill-opacity="1" stroke-width="4" stroke-linecap="round" stroke-linejoin="round" stroke="rgb(13.73%, 12.16%, 12.55%)" stroke-opacity="1" stroke-miterlimit="10" d="M -0 -0 L 0.28 -1.5 L 0.09 -3.02 L -0.28 -4.5 L -0.88 -5.91 L -1.87 -7.1 L -3.07 -8.06 L -4.39 -8.85 L -5.88 -9.23 L -7.4 -9.33 L -8.91 -9.2 " transform="matrix(1, 0, 0, -1, 456.66, 245.92)"/>
<path fill-rule="nonzero" fill="rgb(13.73%, 12.16%, 12.55%)" fill-opacity="1" d="M 428.07 234.12 C 428.37 234.6 428.77 235.03 429.28 235.27 C 429.89 235.56 430.59 235.57 431.25 235.47 C 431.62 235.41 432 235.32 432.32 235.12 C 433.1 234.62 433.36 233.62 433.41 232.71 C 433.73 227.16 425.46 229.77 428.07 234.12 "/>
<path fill-rule="nonzero" fill="rgb(13.73%, 12.16%, 12.55%)" fill-opacity="1" d="M 445.89 228.19 C 445.66 228.56 445.57 228.99 445.53 229.42 C 445.44 230.3 445.59 231.26 446.2 231.89 C 446.67 232.39 447.36 232.62 448.04 232.68 C 448.66 232.74 449.32 232.67 449.89 232.4 C 450.46 232.13 450.95 231.66 451.16 231.05 C 451.3 230.65 451.31 230.21 451.25 229.78 C 451.09 228.64 450.3 227.36 449.14 227.01 C 448.14 226.71 446.44 227.29 445.89 228.19 "/>
<path fill-rule="nonzero" fill="rgb(100%, 100%, 100%)" fill-opacity="1" stroke-width="4" stroke-linecap="round" stroke-linejoin="round" stroke="rgb(13.73%, 12.16%, 12.55%)" stroke-opacity="1" stroke-miterlimit="10" d="M 0 -0 L -0.45 -1.13 L -1.02 -2.2 L -1.54 -3.44 L -2.15 -4.64 L -2.8 -5.82 L -3.33 -7.05 L -3.98 -8.23 L -4.65 -9.39 " transform="matrix(1, 0, 0, -1, 452.73, 196.81)"/>
<path fill-rule="nonzero" fill="rgb(100%, 100%, 100%)" fill-opacity="1" stroke-width="4" stroke-linecap="round" stroke-linejoin="round" stroke="rgb(13.73%, 12.16%, 12.55%)" stroke-opacity="1" stroke-miterlimit="10" d="M 0 0 L -0.31 -1.29 L -1.03 -2.4 L -1.97 -3.31 L -3.11 -4.07 L -4.45 -4.34 L -5.8 -4.41 L -6.93 -4.39 L -8.07 -4.23 L -9.33 -3.37 L -10.45 -2.35 L -11.16 -0.99 L -11.67 0.44 L -11.93 1.96 L -11.89 3.05 L -11.68 4.11 L -10.86 5.41 L -9.74 6.44 L -8.36 7.11 L -6.87 7.52 L -5.35 7.83 L -3.92 7.69 L -2.56 7.22 L -1.5 6.24 L -0.76 5.01 L -0.19 3.84 L -0.07 2.55 L 0.16 1.28 Z M 0 0 " transform="matrix(1, 0, 0, -1, 461.57, 193.1)"/>
<path fill-rule="nonzero" fill="rgb(100%, 100%, 100%)" fill-opacity="1" stroke-width="4" stroke-linecap="round" stroke-linejoin="round" stroke="rgb(13.73%, 12.16%, 12.55%)" stroke-opacity="1" stroke-miterlimit="10" d="M 0 -0 L -0.32 -1.18 L -0.79 -2.3 L -1.38 -3.54 L -1.67 -4.88 L -2.04 -6.2 L -2.45 -7.5 L -3.06 -8.75 L -3.34 -10.1 L -3.92 -11.34 L -4.26 -12.68 L -4.85 -13.92 " transform="matrix(1, 0, 0, -1, 432.89, 197.37)"/>
<path fill-rule="nonzero" fill="rgb(100%, 100%, 100%)" fill-opacity="1" stroke-width="4" stroke-linecap="round" stroke-linejoin="round" stroke="rgb(13.73%, 12.16%, 12.55%)" stroke-opacity="1" stroke-miterlimit="10" d="M 0 -0 L -0.34 -1.27 L -0.73 -2.54 L -1.71 -3.45 L -2.76 -4.31 L -4.07 -4.73 L -5.42 -4.91 L -6.55 -4.99 L -7.65 -4.77 L -9.02 -4.14 L -10.31 -3.29 L -11.07 -1.95 L -11.65 -0.54 L -12.13 0.93 L -12.21 2.03 L -11.88 3.08 L -11.41 4.55 L -10.29 5.63 L -8.93 6.35 L -7.53 7.05 L -6.01 7.35 L -4.57 7.31 L -3.25 6.83 L -2.1 6.03 L -1.11 4.98 L -0.7 3.74 L -0.17 2.56 L -0.07 1.28 Z M 0 -0 " transform="matrix(1, 0, 0, -1, 441.38, 192.93)"/>
<path fill-rule="nonzero" fill="rgb(100%, 100%, 100%)" fill-opacity="1" stroke-width="4" stroke-linecap="round" stroke-linejoin="round" stroke="rgb(13.73%, 12.16%, 12.55%)" stroke-opacity="1" stroke-miterlimit="10" d="M 0 0 L 0.25 -1.41 L 0.34 -2.84 L 0.43 -4.27 L 0.56 -5.69 L 0.79 -7.1 L 0.92 -8.52 L 1.03 -9.96 L 1.05 -11.39 L 1.08 -12.82 L 1.02 -14.26 L 0.99 -15.69 L 1.3 -17.12 L 1.32 -18.56 L 1.01 -19.98 L 0.93 -21.41 " transform="matrix(1, 0, 0, -1, 475.62, 225.5)"/>
<path fill-rule="nonzero" fill="rgb(100%, 100%, 100%)" fill-opacity="1" stroke-width="4" stroke-linecap="round" stroke-linejoin="round" stroke="rgb(13.73%, 12.16%, 12.55%)" stroke-opacity="1" stroke-miterlimit="10" d="M -0 0 L 0.45 -1.4 L 0.69 -2.85 L 1.28 -4.22 L 1.53 -5.67 L 1.75 -7.12 L 2 -8.57 L 2.09 -10.04 L 2.41 -11.48 L 2.49 -12.95 L 2.26 -14.42 L 2.24 -15.87 L 2.3 -17.35 L 1.83 -18.76 " transform="matrix(1, 0, 0, -1, 533.99, 218.05)"/>
<path fill-rule="nonzero" fill="rgb(13.73%, 12.16%, 12.55%)" fill-opacity="1" d="M 345.27 522.82 C 344.38 522.58 344.56 519.29 344.62 518.37 C 344.76 516.25 345.68 513.75 345.5 511.61 C 345.4 510.37 344.66 509.32 344.6 508.07 C 343.57 508.09 342.31 507.34 341.39 507.29 C 339.22 507.16 336.7 507.89 334.3 507.59 C 330.48 507.12 331.61 503.87 331.78 501.06 C 331.8 500.73 331.49 500.3 331.54 499.82 C 331.93 496.11 333.07 496.8 335.99 496.64 C 338.93 496.48 340.48 496.41 343.57 496.64 C 345.59 496.79 347.27 496.05 349.09 496.18 C 350.95 496.32 353.15 497.2 355.01 497.45 C 358.43 497.9 361.94 497.57 365.36 498.11 C 366.26 498.25 369.31 498.64 369.53 499.41 C 369.71 500.05 369.68 502.82 369.57 503.59 C 369.46 504.31 368.98 504.74 368.8 505.36 C 368.54 506.32 368.85 507.4 367.88 508.24 C 367.4 508.66 365.28 509.18 364.63 509.2 C 363.38 509.22 361.32 508.58 360.05 508.47 C 358.82 508.36 357.14 508.3 356.26 509.3 C 355.04 510.69 356.21 513.45 356.07 515.44 C 356.02 516.1 355.7 516.6 355.64 517.13 C 355.5 518.51 355.86 521 354.6 522 C 354.39 522.17 352.57 522.82 352.46 522.82 C 350.77 522.82 346.54 523.15 345.27 522.82 "/>
<path fill-rule="nonzero" fill="rgb(13.73%, 12.16%, 12.55%)" fill-opacity="1" d="M 420.26 498.09 C 420.37 500.05 420.88 501.77 420.72 503.79 C 420.46 507.05 419.52 508.4 416.18 508.97 C 414.8 509.2 413.9 508.79 412.89 508.81 C 412.38 508.82 408.74 509.75 408.52 509.97 C 407.29 513.26 407.76 516.78 407.12 520.2 C 406.98 520.72 404.89 521.94 404.36 522.09 C 404.06 522.17 401.37 522.56 401.05 522.56 C 399.04 522.57 398.52 521.13 398.32 519.39 C 398.05 516.89 398.92 515.38 398.97 513.49 C 398.99 512.85 398.7 510.91 398.32 510.52 C 396.91 509.14 394.15 510.27 392.62 510.34 C 390.98 510.42 385.35 510.61 384.84 508.79 C 384.61 505.91 383.45 502.34 385.61 499.95 C 386.88 498.57 388.09 499.07 389.63 498.9 C 395.97 498.17 401.78 497.41 408.22 497.66 C 410.65 497.76 413.47 497.1 415.42 497.19 C 416.85 497.26 418.77 498 420.26 498.09 "/>
<path fill-rule="nonzero" fill="rgb(13.73%, 12.16%, 12.55%)" fill-opacity="1" d="M 388.19 492.55 C 387.54 491.91 387.67 486.08 387.73 484.74 C 387.77 483.52 388.72 482.33 387.54 481.15 C 387.2 480.8 385.15 480.29 384.57 480.29 C 383.06 480.29 381.05 481.62 379.5 479.9 C 378.54 478.81 379.26 478.37 379.27 477.57 C 379.27 477.04 378.88 476.32 378.85 475.47 C 378.79 473.78 379.64 469.97 381.62 469.73 C 382.52 469.62 383.12 470.16 383.73 470.16 C 384.52 470.16 385.88 469.38 386.71 469.32 C 388.05 469.24 390.66 469.72 392.17 469.78 C 394.35 469.86 395.09 468.57 397.26 470.17 C 399.17 471.59 398.57 472.22 398.71 474.21 C 398.87 476.54 398.81 478.93 398.71 481.36 C 398.66 482.68 398.8 483.66 398.76 484.76 C 398.7 486.3 397.95 488.46 397.68 490.05 C 397.19 491.39 393.86 492.68 392.52 492.92 C 391.05 493.18 389.72 492.3 388.19 492.55 "/>
<path fill-rule="nonzero" fill="rgb(13.73%, 12.16%, 12.55%)" fill-opacity="1" d="M 334.92 482.46 C 334.4 480.02 330.76 481.34 328.87 480.91 C 328.28 480.78 326.07 479.77 325.83 479.3 C 325.56 477.1 324.84 470.86 327.59 470.06 C 328.47 469.8 331.49 469.92 332.61 469.98 C 333.6 470.04 334.36 470.48 335.57 470.44 C 336.89 470.4 337.9 469.88 339.38 469.98 C 340.34 470.05 342.79 470.72 343.53 471.25 C 343.61 471.3 344.61 472.29 344.85 472.52 C 346.67 474.27 345.47 475.41 345.7 477.63 C 345.75 478.14 346.21 478.69 346.25 479.16 C 346.36 480.46 345.08 488.17 344.55 489.55 C 344.43 489.86 343.1 492.12 342.97 492.2 C 342.82 492.3 339.8 492.73 339.44 492.72 C 339.1 492.7 338.63 492.41 338.11 492.38 C 336.96 492.3 335.66 492.81 334.92 491.76 C 334.54 489.07 335.45 484.95 334.92 482.46 "/>
<path fill-rule="nonzero" fill="rgb(13.73%, 12.16%, 12.55%)" fill-opacity="1" d="M 494.11 523.27 C 495.57 523.82 500.75 524.5 499.46 521.93 C 498.48 520.01 495.38 521.38 493.71 520.9 Z M 494.48 514.56 C 495.17 515.23 498.19 515.18 498.77 514.3 C 499.07 513.86 498.86 513.05 499 512.45 C 499.25 511.32 499.8 510.77 500.24 509.87 C 500.38 509.59 500.29 509.11 500.49 508.72 C 501.19 507.34 504.99 507.55 506.39 507.69 C 509.77 508.03 510.3 509.54 510.07 512.74 C 510.04 513.28 509.76 513.7 509.72 514.13 C 509.35 518.42 508.82 523.04 507.47 527.18 C 507.39 527.4 505.69 529.7 505.55 529.79 C 505.43 529.86 503.6 530.24 503.26 530.28 C 499.45 530.68 496.18 530.46 492.51 530.29 C 491.22 530.22 487.28 530.62 486.56 529.61 C 486.46 529.46 485.53 527.25 485.43 526.92 C 484.3 523.3 482.95 515.76 483.26 512.02 C 483.29 511.61 483.66 509.57 483.78 509.4 C 484.27 508.63 490.02 507.77 491.05 508.07 C 491.39 508.18 492.41 509.27 492.62 509.63 C 492.77 509.89 493.61 511.58 493.65 511.73 C 493.89 512.6 493.59 513.71 494.48 514.56 "/>
<path fill-rule="nonzero" fill="rgb(13.73%, 12.16%, 12.55%)" fill-opacity="1" d="M 487.4 485.71 C 486.45 485.79 485.4 487.25 484.78 487.45 C 483.52 487.84 481.68 488.56 480.59 488.82 C 480.15 488.93 479.24 488.82 479.12 488.92 C 479.01 489.03 478.34 490.81 478.43 491.11 C 478.48 491.29 479.26 492.12 479.44 492.21 C 480.27 492.64 481.17 491.8 482.06 491.69 C 483.02 491.56 484.29 491.88 485.13 491.62 C 485.47 491.52 485.66 491.06 486.22 490.97 C 489.77 490.41 490.62 494.62 490.22 497.41 C 490.04 498.71 488.84 499.26 487.77 499.83 C 485.34 501.13 482.96 501.16 480.38 501.83 C 479.7 502.01 478.96 502.54 478.16 502.73 C 476.83 503.06 475.02 503.25 474.05 502.11 C 473.73 501.73 473.68 501.07 473.35 500.71 C 473.11 500.44 472.66 500.48 472.47 500.16 C 471.83 499.11 471.7 496.82 471.39 495.73 C 471.19 495.05 470.3 493.66 470.11 492.84 C 469.87 491.79 470.18 490.51 470.04 489.43 C 469.96 488.83 469.5 488.18 469.49 487.68 C 469.48 487.25 469.66 485.75 469.76 485.3 C 470.21 483.18 471.23 483.49 472.59 482.9 C 474.11 482.24 475.65 481.49 477.25 480.96 C 478.35 480.59 478.7 481.25 479.52 479.75 C 480.15 478.59 480.23 477.21 479.62 476.02 C 478.82 474.46 473.63 476.01 472.99 474.99 C 472.77 474.65 472.83 474.04 472.68 473.57 C 472.33 472.54 472 472.32 472.12 470.96 C 472.32 468.79 474.23 468.93 475.78 468.7 C 478.1 468.36 482.15 468.15 484.5 468.35 C 488 468.66 487.29 469.88 487.46 472.7 C 487.57 474.62 487.24 475.05 487.18 476.61 C 487.14 477.55 487.61 479.39 487.7 480.44 C 487.77 481.2 488.01 482.11 488.02 482.45 C 488.06 483.31 487.34 484.73 487.4 485.71 "/>
<path fill-rule="nonzero" fill="rgb(13.73%, 12.16%, 12.55%)" fill-opacity="1" d="M 446.79 520.6 C 446.68 520.72 446.36 522.4 446.05 522.8 C 447.26 524.13 448.43 523.4 449.68 523.32 C 452.21 523.16 455.2 522.99 457.7 523.34 C 458.02 523.39 458.72 523.63 458.93 523.84 C 459.17 524.09 459.61 525.61 459.6 525.94 C 459.59 526.3 459.29 526.63 459.28 526.99 C 459.27 527.62 459.94 528.7 459.59 529.57 C 458.41 530.18 457.17 529.79 455.98 529.96 C 454.39 530.18 452.66 530.79 451.03 530.91 C 449.41 531.02 447.17 530.78 445.51 530.65 C 443.9 530.53 442.3 530.42 440.7 530.24 C 439.23 529.84 439.63 525.53 439.07 524.22 C 438.9 522.1 439.07 519.96 439.07 517.94 C 439.07 517.52 438.68 517.09 438.71 516.55 C 438.77 515.68 440.09 515.2 440.72 514.7 C 444.11 513.96 447.55 513.66 451.04 513.54 C 451.99 513.08 452.47 511.84 451.4 511.19 L 446.24 511.16 C 443.9 510.98 442 511.45 439.89 510.18 C 439.37 509.87 438.77 509.57 438.72 508.89 C 438.69 508.56 439.33 506.16 439.49 506 C 440.09 505.4 445.73 504.57 446.91 504.59 C 448.59 504.61 450.55 504.39 452.15 504.54 C 454.04 504.71 456.3 505.77 458.23 506.1 C 458.73 506.44 458.66 509.5 458.58 510.3 C 458.5 511.22 457.99 511.93 457.89 512.73 C 457.52 515.49 459.06 519.12 455.26 519.85 C 453.57 520.18 450.71 520.45 448.98 520.56 C 448.44 520.59 447.31 519.97 446.79 520.6 "/>
<path fill-rule="nonzero" fill="rgb(13.73%, 12.16%, 12.55%)" fill-opacity="1" d="M 505.47 497.52 C 505.41 497.6 504 498.55 503.91 498.58 C 502.88 498.91 500.51 499.13 499.45 498.98 C 497.07 498.62 497.04 495.51 497.17 493.57 C 497.31 491.55 498.6 489.62 495.56 488.95 C 494.27 488.67 492.57 489.41 491.79 487.86 C 491.46 487.22 491.55 484.73 491.63 483.86 C 491.68 483.33 491.91 482 492.04 481.48 C 492.59 479.26 493.42 478.54 495.69 478.2 C 495.99 478.15 496.3 478.41 496.6 478.38 C 497.37 478.3 498.29 477.55 499.24 477.73 L 501 469.28 C 501.15 469.02 502.67 468.46 502.98 468.44 C 503.28 468.41 507.04 468.96 507.38 469.13 C 507.76 469.32 509.24 470.7 509.25 470.96 C 508.83 471.58 509.3 472.12 509.28 472.65 C 509.09 477.71 507.61 483.59 506.94 488.73 C 506.65 490.95 506.83 493.71 506.17 495.96 C 506.11 496.2 505.78 496.5 505.62 496.82 C 505.52 497.02 505.6 497.36 505.47 497.52 "/>
<path fill-rule="nonzero" fill="rgb(13.73%, 12.16%, 12.55%)" fill-opacity="1" d="M 449.56 489.2 C 448.52 487.8 449.01 486.09 448.43 484.6 C 447.98 483.45 446.77 484.31 445.89 484.38 C 445.05 484.45 442.94 484.76 442.41 484.73 C 441.81 484.69 439.64 483.66 439.47 483.11 C 439.39 481.78 439.3 480.43 439.81 479.18 C 441.65 479.2 443.41 478.46 445.19 478.12 C 446.19 477.93 447.3 478.39 447.96 477.07 C 449.36 474.31 445.52 474.51 443.77 474.61 C 442.39 474.7 440.23 475.65 439.08 474.46 C 437.98 473.34 438.7 472.92 438.72 472.02 C 438.72 471.69 438.44 471.39 438.48 471.04 C 438.62 469.58 439.3 467.97 440.81 467.48 C 443.29 466.66 447.72 467.7 450.41 467.31 C 451.22 467.78 451.92 467.33 452.48 467.35 C 453.7 467.38 456.18 468.15 456.76 469.3 C 457.46 470.72 457 471.23 456.91 472.43 C 456.75 474.63 456.65 477.01 456.47 479.31 C 456.29 481.68 456.94 484.12 456.42 486.57 C 455.73 489.84 452.14 489.53 449.56 489.2 "/>
<path fill-rule="nonzero" fill="rgb(13.73%, 12.16%, 12.55%)" fill-opacity="1" d="M 462.72 500 C 462.61 500.12 459.75 500.71 459.44 500.71 C 456.05 500.66 452.51 499.9 448.99 500.01 C 445.25 500.12 441.39 500.16 437.54 500.38 C 437.11 500.41 436.68 500.75 436.13 500.75 C 435.29 500.75 434.23 500.1 433.2 500.35 C 432.36 498.82 433.21 497.74 433.43 496.3 C 433.48 496.01 433.23 495.7 433.27 495.4 C 433.36 494.67 433.66 493.34 434.44 493.12 L 444.83 492.87 C 448.96 493.43 452.88 493.24 457.02 493.4 C 457.51 493.42 458.01 493.75 458.35 493.71 C 459.45 493.55 459 493.18 460.89 493.34 C 461.45 493.38 462.09 492.67 462.58 493.41 C 463.74 495.17 462.7 498.06 462.72 500 "/>
<path fill-rule="nonzero" fill="rgb(13.73%, 12.16%, 12.55%)" fill-opacity="1" d="M 418.5 491.22 C 418.38 491.36 416.95 492.12 416.7 492.16 C 415.51 492.33 412.43 492.45 411.4 491.95 C 409.53 491.03 410.44 489.8 410.52 488.55 C 410.54 488.27 410.32 487.97 410.33 487.72 C 410.39 486.43 410.98 482.91 410.37 481.99 C 409.85 481.21 405.41 481.59 404.25 481.14 C 403.84 478.3 403.51 474.93 403.79 472.06 C 404.07 469.07 405.81 468.25 408.68 468.47 C 409.33 468.52 409.84 468.84 410.37 468.89 C 412.65 469.12 414.55 469.38 416.69 469.35 C 417.2 469.34 419.88 470 420.41 470.26 C 422.03 471.05 421.68 473.81 421.57 475.48 C 421.27 479.87 420.14 484.37 419.42 488.55 C 419.34 489.04 418.74 490.97 418.5 491.22 "/>
<path fill-rule="nonzero" fill="rgb(13.73%, 12.16%, 12.55%)" fill-opacity="1" d="M 366.14 491.5 C 363.42 491.9 360.84 491.08 358.16 491.13 C 358.21 489.37 358.11 487.59 358.14 485.83 C 358.16 485.18 358.57 484.64 358.57 484.16 C 358.57 483.58 357.79 481.05 357.34 480.75 C 352.76 480.33 351.43 481.53 351.81 476.11 C 351.89 474.95 352.08 473.02 352.24 471.89 C 352.31 471.41 353.54 469.55 353.93 469.35 C 354.69 468.96 360.05 469.06 361.35 469.14 C 362.01 469.18 362.51 469.51 363.04 469.56 C 365.67 469.83 368.84 469.15 369.17 472.73 C 369.5 476.42 368.79 479.05 368.32 482.48 C 368.18 483.57 368.43 484.75 368.29 485.83 C 368.06 487.64 366.96 489.88 366.14 491.5 "/>
</svg>
