<?xml version="1.0" encoding="UTF-8"?>
<svg xmlns="http://www.w3.org/2000/svg" xmlns:xlink="http://www.w3.org/1999/xlink" width="330" height="270" viewBox="80 285 330 270">
<defs>
<clipPath id="clip-0">
<path clip-rule="nonzero" d="M 0.46 0 L 841.32 0 L 841.32 594.55 L 0.46 594.55 Z M 0.46 0 "/>
</clipPath>
</defs>
<g clip-path="url(#clip-0)">

</g>
<path fill-rule="nonzero" fill="rgb(31.5%, 43.01%, 74.63%)" fill-opacity="1" d="M 84.75 90.33 L 80.84 90.33 L 80.84 76.56 L 84.75 76.56 Z M 79.74 90.12 L 75.9 90.12 L 75.9 76.94 L 79.74 76.94 Z M 76.92 85.36 L 73.49 85.36 L 73.49 82.06 L 76.92 82.06 Z M 72.26 97.11 L 80.71 97.11 L 80.71 94.4 L 72.26 94.4 Z M 68.7 86.11 L 70.68 86.11 L 70.68 81.39 L 68.7 81.39 Z M 84.75 100.34 L 68.19 100.34 L 68.19 91.2 L 84.75 91.2 Z M 74.49 89.18 L 64.86 89.18 L 64.86 78.3 L 74.49 78.3 Z M 74.49 89.18 "/>
<path fill-rule="nonzero" fill="rgb(31.5%, 43.01%, 74.63%)" fill-opacity="1" d="M 108.21 100.62 L 104.09 100.62 L 104.09 76.51 L 108.21 76.51 Z M 105.26 88 L 99.12 88 L 99.12 84.7 L 105.26 84.7 Z M 96.43 87.16 L 92.77 87.16 L 92.77 91.89 L 96.43 91.89 Z M 92.77 83.98 L 96.43 83.98 L 96.43 78.4 L 100.5 78.4 L 100.5 95.17 L 88.68 95.17 L 88.68 78.4 L 92.77 78.4 Z M 92.77 83.98 "/>
<path fill-rule="nonzero" fill="rgb(31.5%, 43.01%, 74.63%)" fill-opacity="1" d="M 131.81 90.41 L 127.67 90.41 L 127.67 76.53 L 131.81 76.53 Z M 127.69 96.04 L 119.09 96.04 L 119.09 97.14 L 127.69 97.14 Z M 122.98 80.65 C 123.79 81.44 125.08 81.98 126.87 82.29 L 125.18 85.41 C 122.9 84.97 121.21 84.09 120.11 82.77 C 119.02 81.44 118.48 79.85 118.48 77.99 L 118.48 77.2 L 121.78 77.2 L 121.78 77.99 C 121.78 78.98 122.18 79.87 122.98 80.65 M 121.88 91.69 L 117.79 91.69 L 117.79 87.82 L 121.88 87.82 Z M 119.09 92.99 L 127.69 92.99 L 127.69 91.36 L 131.81 91.36 L 131.81 100.34 L 114.99 100.34 L 114.99 91.36 L 119.09 91.36 Z M 119.12 83.02 C 118.02 84.39 116.32 85.31 114 85.77 L 112.25 82.68 C 113.52 82.44 114.54 82.08 115.32 81.6 C 116.09 81.12 116.64 80.58 116.98 79.96 C 117.31 79.35 117.48 78.69 117.48 77.99 L 117.48 77.2 L 120.75 77.2 L 120.75 77.99 C 120.75 79.97 120.21 81.65 119.12 83.02 M 119.69 86.32 C 122.09 86.25 124.38 86.06 126.57 85.77 L 126.82 88.69 C 124.57 89.09 122.24 89.34 119.85 89.47 C 117.45 89.6 114.84 89.66 112.02 89.66 L 111.59 86.44 C 114.59 86.44 117.29 86.4 119.69 86.32 "/>
<path fill-rule="nonzero" fill="rgb(31.5%, 43.01%, 74.63%)" fill-opacity="1" d="M 162.13 100.57 L 158.21 100.57 L 158.21 76.56 L 162.13 76.56 Z M 159.16 88.69 L 155.52 88.69 L 155.52 85.39 L 159.16 85.39 Z M 156.75 99.6 L 152.91 99.6 L 152.91 77.02 L 156.75 77.02 Z M 149.48 82.55 L 142.75 82.55 L 142.75 79.27 L 149.48 79.27 Z M 141.91 88.41 L 141.47 84.95 L 148.46 84.65 L 148.46 87.69 Z M 151.39 86.12 C 150.91 88.09 150.03 89.91 148.77 91.59 C 147.5 93.26 145.73 94.78 143.44 96.14 L 141.19 93.27 C 143.03 92.16 144.46 90.98 145.49 89.73 C 146.52 88.47 147.23 87.08 147.64 85.54 C 148.05 84.01 148.25 82.17 148.25 80.04 L 148.25 79.27 L 152.12 79.27 C 152.12 81.87 151.88 84.15 151.39 86.12 "/>
<path fill-rule="nonzero" fill="rgb(31.5%, 43.01%, 74.63%)" fill-opacity="1" d="M 185.15 91.36 L 181 91.36 L 181 76.53 L 185.15 76.53 Z M 185.15 100.57 L 181 100.57 L 181 95.53 L 168.59 95.53 L 168.59 92.25 L 185.15 92.25 Z M 174.84 87.14 C 176.44 87.07 178 86.9 179.52 86.64 L 179.98 89.89 C 178.43 90.17 176.83 90.34 175.19 90.42 C 173.55 90.5 171.3 90.54 168.46 90.54 L 166.28 90.54 L 166.28 87.26 L 168.46 87.26 C 171.12 87.26 173.25 87.22 174.84 87.14 M 177.42 85.59 L 170.35 85.59 L 170.35 88.77 L 166.28 88.77 L 166.28 82.57 L 173.32 82.57 L 173.32 81.06 L 166.25 81.06 L 166.25 77.81 L 177.42 77.81 Z M 177.42 85.59 "/>
<path fill-rule="nonzero" fill="rgb(31.5%, 43.01%, 74.63%)" fill-opacity="1" d="M 209.09 100.62 L 204.96 100.62 L 204.96 76.51 L 209.09 76.51 Z M 205.4 87.98 L 201.3 87.98 L 201.3 84.65 L 205.4 84.65 Z M 200.23 88.28 L 192.98 88.28 L 192.98 85.08 L 200.23 85.08 Z M 197.27 91.97 C 198.78 91.9 200.32 91.75 201.87 91.54 L 202.23 94.79 C 200.64 95.02 199.06 95.18 197.49 95.26 C 195.92 95.34 194.02 95.38 191.78 95.38 L 189.79 95.38 L 189.79 92.07 L 191.78 92.07 C 193.93 92.07 195.76 92.04 197.27 91.97 M 200.92 81.75 L 193.91 81.75 L 193.91 93.07 L 189.79 93.07 L 189.79 78.43 L 200.92 78.43 Z M 200.92 81.75 "/>
<path fill-rule="nonzero" fill="rgb(31.5%, 43.01%, 74.63%)" fill-opacity="1" d="M 232.33 82.64 C 232.86 83.69 233.75 84.62 234.98 85.43 C 236.2 86.24 237.79 86.79 239.74 87.08 L 238.05 90.54 C 235.76 90.12 233.86 89.38 232.35 88.31 C 230.84 87.23 229.72 85.93 229 84.39 C 228.27 82.86 227.91 81.19 227.91 79.4 L 227.91 77.73 L 231.52 77.73 L 231.52 79.4 C 231.52 80.51 231.79 81.59 232.33 82.64 M 231.37 95.4 L 227.25 95.4 L 227.25 89.48 L 231.37 89.48 Z M 229.61 84.35 C 228.89 85.9 227.77 87.21 226.25 88.31 C 224.73 89.4 222.83 90.14 220.56 90.54 L 218.87 87.08 C 220.8 86.79 222.38 86.23 223.61 85.41 C 224.84 84.6 225.73 83.66 226.27 82.6 C 226.82 81.54 227.09 80.48 227.09 79.4 L 227.09 77.73 L 230.7 77.73 L 230.7 79.4 C 230.7 81.16 230.34 82.81 229.61 84.35 M 240.3 97.91 L 218.57 97.91 L 218.57 94.58 L 240.3 94.58 Z M 240.3 97.91 "/>
<path fill-rule="nonzero" fill="rgb(31.5%, 43.01%, 74.63%)" fill-opacity="1" d="M 262.91 100.54 L 258.99 100.54 L 258.99 76.53 L 262.91 76.53 Z M 260.04 88.54 L 256.41 88.54 L 256.41 85.26 L 260.04 85.26 Z M 257.51 99.6 L 253.67 99.6 L 253.67 77.14 L 257.51 77.14 Z M 249.88 82.68 L 243.12 82.68 L 243.12 79.4 L 249.88 79.4 Z M 251.89 86.07 C 251.37 88.02 250.48 89.8 249.24 91.42 C 247.99 93.03 246.29 94.48 244.14 95.76 L 241.76 92.92 C 243.49 91.86 244.86 90.73 245.87 89.54 C 246.89 88.34 247.62 87 248.06 85.5 C 248.5 84.01 248.73 82.27 248.73 80.27 L 248.73 79.4 L 252.67 79.4 C 252.67 81.89 252.41 84.11 251.89 86.07 "/>
<path fill-rule="nonzero" fill="rgb(31.5%, 43.01%, 74.63%)" fill-opacity="1" d="M 272.8 87 L 281.76 87 L 281.76 90.43 L 272.8 90.43 Z M 272.8 87 "/>
<path fill-rule="nonzero" fill="rgb(31.5%, 43.01%, 74.63%)" fill-opacity="1" d="M 310.95 100.62 L 306.82 100.62 L 306.82 76.51 L 310.95 76.51 Z M 308.9 87 L 302.75 87 L 302.75 83.7 L 308.9 83.7 Z M 300.46 85.91 C 300.8 87.32 301.37 88.58 302.18 89.68 C 302.99 90.78 304.07 91.62 305.42 92.2 L 302.96 95.48 C 301.41 94.74 300.16 93.68 299.23 92.29 C 298.3 90.9 297.65 89.29 297.27 87.45 C 296.88 85.62 296.69 83.56 296.69 81.29 L 296.69 78.25 L 299.96 78.25 L 299.96 81.29 C 299.96 82.97 300.13 84.51 300.46 85.91 M 298.52 87.54 C 298.1 89.43 297.41 91.11 296.45 92.56 C 295.48 94.01 294.21 95.11 292.64 95.86 L 290.08 92.56 C 291.48 91.93 292.61 91.04 293.45 89.88 C 294.29 88.73 294.9 87.43 295.27 85.96 C 295.63 84.51 295.82 82.95 295.82 81.29 L 295.82 78.25 L 299.14 78.25 L 299.14 81.29 C 299.14 83.56 298.94 85.64 298.52 87.54 "/>
<path fill-rule="nonzero" fill="rgb(31.5%, 43.01%, 74.63%)" fill-opacity="1" d="M 329.69 84.77 L 320.52 84.77 L 320.52 87.75 L 329.69 87.75 Z M 320.52 81.6 L 329.69 81.6 L 329.69 77.99 L 333.79 77.99 L 333.79 91 L 316.43 91 L 316.43 77.99 L 320.52 77.99 Z M 336.01 97.88 L 314.28 97.88 L 314.28 94.53 L 336.01 94.53 Z M 336.01 97.88 "/>
<path fill-rule="nonzero" fill="rgb(31.5%, 43.01%, 74.63%)" fill-opacity="1" d="M 194.96 65.33 L 72.89 65.33 C 67.57 65.33 63.25 61.01 63.25 55.68 L 63.25 53.67 C 63.25 48.34 67.57 44.02 72.89 44.02 L 194.96 44.02 C 200.29 44.02 204.61 48.34 204.61 53.67 L 204.61 55.68 C 204.61 61.01 200.29 65.33 194.96 65.33 "/>
<path fill-rule="nonzero" fill="rgb(100%, 100%, 100%)" fill-opacity="1" d="M 80.07 52.88 L 78.3 52.88 L 78.3 51.43 L 80.07 51.43 Z M 78.79 55.14 L 77.01 55.14 L 77.01 49.13 L 78.79 49.13 Z M 73.7 57.97 L 77.06 57.97 L 77.06 56.93 L 73.7 56.93 Z M 74.77 52.19 C 74.93 52.5 75.17 52.79 75.51 53.04 C 75.85 53.29 76.3 53.49 76.85 53.62 L 76.05 55 C 75.38 54.83 74.81 54.56 74.38 54.19 C 73.94 53.82 73.62 53.38 73.42 52.87 C 73.22 52.36 73.12 51.81 73.12 51.21 L 73.12 50.88 L 74.55 50.88 L 74.55 51.21 C 74.55 51.55 74.62 51.88 74.77 52.19 M 74.55 50.66 L 72.78 50.66 L 72.78 49.1 L 74.55 49.1 Z M 78.79 59.36 L 71.95 59.36 L 71.95 55.55 L 78.79 55.55 Z M 76.45 51.43 L 70.88 51.43 L 70.88 50.05 L 76.45 50.05 Z M 73.91 52.93 C 73.71 53.46 73.39 53.92 72.96 54.31 C 72.52 54.71 71.96 54.99 71.29 55.17 L 70.48 53.79 C 71.03 53.65 71.48 53.45 71.82 53.18 C 72.16 52.9 72.41 52.6 72.55 52.27 C 72.7 51.93 72.78 51.58 72.78 51.21 L 72.78 50.88 L 74.21 50.88 L 74.21 51.21 C 74.21 51.83 74.11 52.4 73.91 52.93 "/>
<path fill-rule="nonzero" fill="rgb(100%, 100%, 100%)" fill-opacity="1" d="M 90.26 53.13 L 88.49 53.13 L 88.49 51.69 L 90.26 51.69 Z M 88.97 55.62 L 87.2 55.62 L 87.2 49.14 L 88.97 49.14 Z M 83.17 53 C 83.02 53.09 82.94 53.25 82.94 53.46 C 82.94 53.66 83.02 53.81 83.17 53.91 C 83.32 54.01 83.54 54.05 83.81 54.05 C 84.08 54.05 84.29 54.01 84.45 53.91 C 84.6 53.81 84.68 53.66 84.68 53.46 C 84.68 53.25 84.6 53.09 84.45 53 C 84.29 52.9 84.08 52.86 83.81 52.86 C 83.54 52.86 83.32 52.9 83.17 53 M 84.69 50.73 L 82.92 50.73 L 82.92 49.07 L 84.69 49.07 Z M 88.97 59.46 L 87.2 59.46 L 87.2 57.37 L 81.98 57.37 L 81.98 55.97 L 88.97 55.97 Z M 85.13 51.77 C 85.53 51.94 85.83 52.16 86.05 52.46 C 86.27 52.75 86.38 53.09 86.38 53.46 C 86.38 53.84 86.27 54.17 86.05 54.46 C 85.83 54.75 85.53 54.97 85.13 55.13 C 84.74 55.3 84.3 55.38 83.81 55.38 C 83.32 55.38 82.88 55.3 82.48 55.13 C 82.09 54.97 81.78 54.75 81.56 54.46 C 81.34 54.17 81.23 53.84 81.23 53.46 C 81.23 53.09 81.34 52.75 81.56 52.46 C 81.78 52.16 82.09 51.94 82.48 51.77 C 82.88 51.61 83.32 51.52 83.81 51.52 C 84.3 51.52 84.74 51.61 85.13 51.77 M 86.84 51.32 L 80.77 51.32 L 80.77 49.93 L 86.84 49.93 Z M 86.84 51.32 "/>
<path fill-rule="nonzero" fill="rgb(100%, 100%, 100%)" fill-opacity="1" d="M 99.69 55.51 L 97.91 55.51 L 97.91 49.13 L 99.69 49.13 Z M 98.22 54.13 L 96.46 54.13 L 96.46 52.73 L 98.22 52.73 Z M 98.22 51.91 L 96.46 51.91 L 96.46 50.5 L 98.22 50.5 Z M 99.69 59.46 L 97.91 59.46 L 97.91 57.32 L 92.53 57.32 L 92.53 55.93 L 99.69 55.93 Z M 94.5 53.89 C 95.06 53.86 95.61 53.8 96.15 53.69 L 96.32 55.09 C 95.77 55.19 95.2 55.26 94.61 55.29 C 94.01 55.33 93.2 55.34 92.15 55.34 L 91.34 55.34 L 91.34 53.93 L 92.15 53.93 C 93.15 53.93 93.93 53.92 94.5 53.89 M 95.92 53.13 L 93.1 53.13 L 93.1 54.89 L 91.34 54.89 L 91.34 51.83 L 94.16 51.83 L 94.16 51.09 L 91.33 51.09 L 91.33 49.7 L 95.92 49.7 Z M 95.92 53.13 "/>
<path fill-rule="nonzero" fill="rgb(100%, 100%, 100%)" fill-opacity="1" d="M 109.33 54.95 L 107.55 54.95 L 107.55 52.92 L 109.33 52.92 Z M 107.39 50.85 C 107.11 50.9 106.89 50.98 106.73 51.09 C 106.59 51.2 106.51 51.35 106.51 51.52 C 106.51 51.7 106.59 51.84 106.73 51.96 C 106.89 52.07 107.11 52.16 107.39 52.21 C 107.69 52.27 108.04 52.29 108.47 52.29 C 108.89 52.29 109.25 52.27 109.54 52.21 C 109.83 52.16 110.05 52.07 110.2 51.96 C 110.35 51.84 110.43 51.7 110.43 51.52 C 110.43 51.35 110.35 51.2 110.2 51.09 C 110.05 50.98 109.83 50.9 109.54 50.85 C 109.25 50.79 108.89 50.76 108.47 50.76 C 108.04 50.76 107.69 50.79 107.39 50.85 M 112.08 59.3 L 104.88 59.3 L 104.88 57.9 L 112.08 57.9 Z M 106.65 58.38 L 104.88 58.38 L 104.88 56.3 L 106.65 56.3 Z M 110.46 49.63 C 111.03 49.8 111.48 50.06 111.79 50.38 C 112.11 50.71 112.27 51.09 112.27 51.54 C 112.27 51.97 112.11 52.35 111.79 52.68 C 111.48 53 111.04 53.25 110.46 53.43 C 109.89 53.61 109.23 53.69 108.47 53.69 C 107.71 53.69 107.05 53.61 106.48 53.43 C 105.9 53.25 105.46 53 105.14 52.68 C 104.83 52.35 104.67 51.97 104.67 51.54 C 104.67 51.09 104.83 50.71 105.14 50.38 C 105.46 50.06 105.91 49.8 106.48 49.63 C 107.06 49.45 107.72 49.37 108.47 49.37 C 109.22 49.37 109.88 49.45 110.46 49.63 M 113.14 55.74 L 103.79 55.74 L 103.79 54.34 L 113.14 54.34 Z M 113.14 55.74 "/>
<path fill-rule="nonzero" fill="rgb(100%, 100%, 100%)" fill-opacity="1" d="M 123.54 54.36 L 121.77 54.36 L 121.77 52.91 L 123.54 52.91 Z M 122.16 59.48 L 120.39 59.48 L 120.39 49.11 L 122.16 49.11 Z M 117.73 55.62 C 118.43 55.59 119.12 55.5 119.81 55.39 L 119.97 56.81 C 119.26 56.94 118.54 57.03 117.81 57.07 C 117.08 57.12 116.24 57.14 115.3 57.14 L 114.4 57.14 L 114.4 55.68 L 115.3 55.68 C 116.22 55.68 117.03 55.66 117.73 55.62 M 119.19 54.11 L 116.16 54.11 L 116.16 56.22 L 114.4 56.22 L 114.4 52.72 L 117.43 52.72 L 117.43 51.36 L 114.39 51.36 L 114.39 49.95 L 119.19 49.95 Z M 119.19 54.11 "/>
<path fill-rule="nonzero" fill="rgb(100%, 100%, 100%)" fill-opacity="1" d="M 132.81 56.49 L 131.03 56.49 L 131.03 49.14 L 132.81 49.14 Z M 126.56 51.41 C 126.39 51.49 126.25 51.62 126.16 51.79 C 126.06 51.96 126.01 52.17 126.01 52.41 C 126.01 52.66 126.06 52.86 126.16 53.03 C 126.25 53.2 126.39 53.33 126.56 53.41 C 126.73 53.5 126.93 53.54 127.14 53.54 C 127.35 53.54 127.55 53.5 127.72 53.41 C 127.89 53.33 128.03 53.2 128.12 53.03 C 128.23 52.86 128.27 52.66 128.27 52.41 C 128.27 52.17 128.23 51.96 128.12 51.79 C 128.03 51.62 127.89 51.49 127.73 51.41 C 127.55 51.32 127.36 51.28 127.14 51.28 C 126.92 51.28 126.73 51.32 126.56 51.41 M 133.04 59.3 L 125.8 59.3 L 125.8 57.9 L 133.04 57.9 Z M 127.57 58.5 L 125.8 58.5 L 125.8 55.76 L 127.57 55.76 Z M 128.59 50.09 C 129.04 50.32 129.38 50.64 129.64 51.04 C 129.89 51.45 130.02 51.91 130.02 52.41 C 130.02 52.91 129.89 53.37 129.64 53.77 C 129.38 54.18 129.04 54.5 128.59 54.73 C 128.15 54.96 127.67 55.08 127.14 55.08 C 126.61 55.08 126.13 54.96 125.69 54.73 C 125.25 54.5 124.9 54.18 124.65 53.77 C 124.39 53.37 124.27 52.91 124.27 52.41 C 124.27 51.91 124.39 51.45 124.65 51.04 C 124.9 50.64 125.25 50.32 125.69 50.09 C 126.13 49.87 126.61 49.75 127.14 49.75 C 127.67 49.75 128.15 49.87 128.59 50.09 "/>
<path fill-rule="nonzero" fill="rgb(100%, 100%, 100%)" fill-opacity="1" d="M 145.2 51.84 C 145.17 52.25 145.09 52.7 144.96 53.16 L 143.2 52.99 C 143.33 52.52 143.41 52.1 143.43 51.73 C 143.46 51.36 143.48 50.91 143.48 50.39 L 143.48 49.55 L 145.25 49.55 L 145.25 50.39 C 145.25 50.94 145.23 51.42 145.2 51.84 M 142.03 53.97 L 140.25 53.97 L 140.25 51.93 L 142.03 51.93 Z M 140.52 56.9 C 140.24 56.95 140.03 57.02 139.89 57.11 C 139.74 57.21 139.67 57.34 139.67 57.49 C 139.67 57.64 139.74 57.77 139.89 57.86 C 140.03 57.96 140.24 58.03 140.52 58.08 C 140.81 58.13 141.16 58.15 141.6 58.15 C 142.03 58.15 142.39 58.13 142.68 58.08 C 142.96 58.03 143.18 57.96 143.32 57.86 C 143.46 57.77 143.54 57.64 143.54 57.49 C 143.54 57.34 143.46 57.21 143.32 57.11 C 143.18 57.02 142.96 56.95 142.68 56.9 C 142.39 56.85 142.03 56.83 141.6 56.83 C 141.16 56.83 140.81 56.85 140.52 56.9 M 144.52 50.94 L 138.03 50.94 L 138.03 49.55 L 144.52 49.55 Z M 143.55 55.75 C 144.11 55.9 144.54 56.13 144.84 56.43 C 145.14 56.73 145.3 57.09 145.3 57.49 C 145.3 57.89 145.14 58.25 144.84 58.55 C 144.54 58.85 144.11 59.08 143.55 59.23 C 143 59.39 142.35 59.47 141.6 59.47 C 140.85 59.47 140.2 59.39 139.64 59.23 C 139.09 59.08 138.66 58.85 138.36 58.55 C 138.05 58.25 137.9 57.89 137.9 57.49 C 137.9 57.09 138.05 56.73 138.36 56.43 C 138.66 56.13 139.09 55.9 139.64 55.75 C 140.2 55.59 140.85 55.51 141.6 55.51 C 142.35 55.51 143 55.59 143.55 55.75 M 146.31 55.02 L 137.02 55.02 L 137.02 53.62 L 146.31 53.62 Z M 146.31 55.02 "/>
<path fill-rule="nonzero" fill="rgb(100%, 100%, 100%)" fill-opacity="1" d="M 152.75 54.39 L 150.98 54.39 L 150.98 52.36 L 152.75 52.36 Z M 150.43 57.11 C 150.14 57.2 150 57.36 150 57.57 C 150 57.78 150.14 57.93 150.43 58.02 C 150.71 58.11 151.18 58.15 151.81 58.15 C 152.45 58.15 152.91 58.11 153.2 58.02 C 153.49 57.93 153.63 57.78 153.63 57.57 C 153.63 57.36 153.49 57.2 153.2 57.11 C 152.91 57.02 152.45 56.97 151.81 56.97 C 151.18 56.97 150.71 57.02 150.43 57.11 M 155.49 53.18 L 148.29 53.18 L 148.29 51.8 L 155.49 51.8 Z M 155.45 50.94 L 150.05 50.94 L 150.05 52.7 L 148.29 52.7 L 148.29 49.55 L 155.45 49.55 Z M 154.47 56.15 C 155.11 56.48 155.43 56.96 155.43 57.57 C 155.43 58.18 155.11 58.65 154.47 58.98 C 153.83 59.32 152.95 59.48 151.81 59.48 C 150.68 59.48 149.8 59.32 149.16 58.98 C 148.52 58.65 148.2 58.18 148.2 57.57 C 148.2 56.96 148.52 56.48 149.16 56.15 C 149.8 55.81 150.68 55.64 151.81 55.64 C 152.95 55.64 153.83 55.81 154.47 56.15 M 156.54 55.25 L 147.19 55.25 L 147.19 53.86 L 156.54 53.86 Z M 156.54 55.25 "/>
<path fill-rule="nonzero" fill="rgb(100%, 100%, 100%)" fill-opacity="1" d="M 165.95 53.21 C 165.9 53.93 165.8 54.77 165.64 55.73 L 163.88 55.56 C 164.03 54.67 164.12 53.87 164.16 53.17 C 164.2 52.47 164.22 51.7 164.22 50.85 L 164.22 49.91 L 166 49.91 L 166 50.85 C 166 51.71 165.98 52.5 165.95 53.21 M 163.44 57.34 L 161.7 57.34 L 161.7 53.73 L 163.44 53.73 Z M 160.89 57.34 L 159.15 57.34 L 159.15 53.73 L 160.89 53.73 Z M 164.72 51.32 L 158.23 51.32 L 158.23 49.91 L 164.72 49.91 Z M 166.71 58.33 L 157.36 58.33 L 157.36 56.89 L 166.71 56.89 Z M 166.71 58.33 "/>
<path fill-rule="nonzero" fill="rgb(100%, 100%, 100%)" fill-opacity="1" d="M 174.79 56.57 L 173.03 56.57 L 173.03 54.54 L 174.79 54.54 Z M 171.13 50.73 C 170.84 50.79 170.62 50.86 170.48 50.97 C 170.33 51.07 170.26 51.21 170.26 51.38 C 170.26 51.54 170.33 51.68 170.48 51.78 C 170.62 51.88 170.84 51.95 171.12 52 C 171.41 52.05 171.77 52.07 172.21 52.07 C 172.66 52.07 173.02 52.05 173.3 52 C 173.59 51.95 173.8 51.88 173.95 51.78 C 174.1 51.68 174.18 51.54 174.18 51.38 C 174.18 51.21 174.1 51.07 173.95 50.97 C 173.8 50.86 173.59 50.79 173.3 50.73 C 173.01 50.69 172.65 50.66 172.21 50.66 C 171.78 50.66 171.42 50.69 171.13 50.73 M 171.37 56.58 L 169.59 56.58 L 169.59 54.55 L 171.37 54.55 Z M 175.77 59.46 L 174 59.46 L 174 57.39 L 168.57 57.39 L 168.57 56.02 L 175.77 56.02 Z M 174.21 49.56 C 174.79 49.73 175.23 49.97 175.54 50.28 C 175.86 50.59 176.01 50.95 176.01 51.37 C 176.01 51.79 175.86 52.15 175.54 52.46 C 175.23 52.78 174.79 53.02 174.21 53.18 C 173.64 53.36 172.97 53.44 172.21 53.44 C 171.46 53.44 170.79 53.36 170.22 53.18 C 169.64 53.02 169.2 52.78 168.88 52.46 C 168.57 52.15 168.42 51.79 168.42 51.37 C 168.42 50.95 168.57 50.59 168.88 50.28 C 169.2 49.97 169.64 49.73 170.22 49.56 C 170.79 49.39 171.46 49.31 172.21 49.31 C 172.97 49.31 173.64 49.39 174.21 49.56 M 176.88 55.25 L 167.54 55.25 L 167.54 53.86 L 176.88 53.86 Z M 176.88 55.25 "/>
<path fill-rule="nonzero" fill="rgb(100%, 100%, 100%)" fill-opacity="1" d="M 187.2 54.64 L 185.43 54.64 L 185.43 53.18 L 187.2 53.18 Z M 185.95 59.45 L 184.18 59.45 L 184.18 49.12 L 185.95 49.12 Z M 183.48 53.06 C 183.45 53.63 183.37 54.27 183.25 54.98 L 181.52 54.83 C 181.63 54.15 181.7 53.54 181.73 52.99 C 181.76 52.45 181.77 51.81 181.77 51.09 L 181.77 50.09 L 183.52 50.09 L 183.52 51.09 C 183.52 51.84 183.51 52.49 183.48 53.06 M 181.05 56.57 L 179.32 56.57 L 179.32 53.05 L 181.05 53.05 Z M 182.48 51.49 L 178.14 51.49 L 178.14 50.09 L 182.48 50.09 Z M 180.94 55.99 C 181.96 55.96 182.91 55.88 183.8 55.77 L 183.88 57.06 C 182.96 57.22 182 57.33 180.99 57.39 C 179.98 57.44 178.92 57.47 177.79 57.47 L 177.64 56.05 C 178.82 56.05 179.92 56.03 180.94 55.99 "/>
<path fill-rule="nonzero" fill="rgb(100%, 100%, 100%)" fill-opacity="1" d="M 196.63 55.25 L 194.85 55.25 L 194.85 49.14 L 196.63 49.14 Z M 195.32 52.95 L 193.55 52.95 L 193.55 51.52 L 195.32 51.52 Z M 192.05 56.84 C 191.79 56.88 191.59 56.96 191.46 57.06 C 191.33 57.16 191.26 57.3 191.26 57.46 C 191.26 57.62 191.33 57.75 191.46 57.85 C 191.59 57.96 191.79 58.03 192.05 58.08 C 192.32 58.13 192.66 58.15 193.08 58.15 C 193.5 58.15 193.84 58.13 194.1 58.08 C 194.37 58.03 194.56 57.96 194.7 57.85 C 194.83 57.75 194.89 57.62 194.89 57.46 C 194.89 57.3 194.83 57.16 194.7 57.06 C 194.56 56.96 194.37 56.88 194.1 56.84 C 193.84 56.79 193.5 56.76 193.08 56.76 C 192.66 56.76 192.32 56.79 192.05 56.84 M 192.18 51.9 C 192.32 52.28 192.56 52.63 192.89 52.94 C 193.23 53.25 193.67 53.49 194.21 53.67 L 193.35 55.06 C 192.69 54.85 192.15 54.53 191.73 54.09 C 191.32 53.66 191.01 53.15 190.82 52.57 C 190.64 52 190.55 51.38 190.55 50.71 L 190.55 50.16 L 191.96 50.16 L 191.96 50.71 C 191.96 51.12 192.04 51.52 192.18 51.9 M 194.99 55.68 C 195.53 55.84 195.94 56.07 196.23 56.37 C 196.52 56.68 196.66 57.04 196.66 57.46 C 196.66 58.09 196.35 58.59 195.71 58.95 C 195.07 59.3 194.19 59.48 193.08 59.48 C 191.96 59.48 191.09 59.3 190.45 58.95 C 189.81 58.59 189.49 58.09 189.49 57.46 C 189.49 57.04 189.63 56.68 189.93 56.37 C 190.21 56.07 190.63 55.84 191.17 55.68 C 191.71 55.51 192.34 55.43 193.08 55.43 C 193.81 55.43 194.45 55.51 194.99 55.68 M 193.84 51.08 L 188.27 51.08 L 188.27 49.69 L 193.84 49.69 Z M 191.3 52.68 C 191.11 53.3 190.79 53.83 190.36 54.29 C 189.93 54.75 189.37 55.09 188.7 55.31 L 187.8 53.91 C 188.37 53.72 188.83 53.46 189.18 53.12 C 189.53 52.78 189.79 52.41 189.93 52 C 190.09 51.59 190.16 51.16 190.16 50.71 L 190.16 50.16 L 191.6 50.16 L 191.6 50.71 C 191.6 51.41 191.5 52.07 191.3 52.68 "/>
<path fill-rule="nonzero" fill="rgb(31.5%, 43.01%, 74.63%)" fill-opacity="1" d="M 436.59 349.14 L 434.46 349.14 L 434.46 348.21 L 436.59 348.21 Z M 434.76 352.53 L 433.65 352.53 L 433.65 344.82 L 434.76 344.82 Z M 429.42 346.62 L 428.31 346.62 L 428.31 344.75 L 429.42 344.75 Z M 427.48 348.9 C 427.13 349.14 426.96 349.48 426.96 349.89 C 426.96 350.3 427.13 350.63 427.48 350.88 C 427.84 351.12 428.29 351.25 428.86 351.25 C 429.42 351.25 429.88 351.12 430.23 350.88 C 430.58 350.63 430.75 350.3 430.75 349.89 C 430.75 349.48 430.58 349.14 430.23 348.9 C 429.89 348.65 429.43 348.53 428.86 348.53 C 428.29 348.53 427.84 348.65 427.48 348.9 M 434.76 357.16 L 433.65 357.16 L 433.65 354.1 L 426.75 354.1 L 426.75 353.2 L 434.76 353.2 Z M 430.4 347.94 C 430.84 348.12 431.19 348.39 431.44 348.72 C 431.68 349.06 431.81 349.45 431.81 349.89 C 431.81 350.34 431.68 350.73 431.44 351.06 C 431.19 351.4 430.84 351.65 430.4 351.84 C 429.95 352.02 429.44 352.11 428.86 352.11 C 428.27 352.11 427.76 352.02 427.31 351.84 C 426.87 351.65 426.52 351.4 426.28 351.06 C 426.03 350.73 425.91 350.34 425.91 349.89 C 425.91 349.45 426.03 349.06 426.28 348.72 C 426.52 348.39 426.87 348.12 427.31 347.94 C 427.76 347.76 428.27 347.67 428.86 347.67 C 429.44 347.67 429.95 347.76 430.4 347.94 M 432.5 347.03 L 425.23 347.03 L 425.23 346.13 L 432.5 346.13 Z M 432.5 347.03 "/>
<path fill-rule="nonzero" fill="rgb(31.5%, 43.01%, 74.63%)" fill-opacity="1" d="M 447.51 350.19 C 447.46 350.98 447.35 351.88 447.16 352.89 L 446.06 352.76 C 446.25 351.8 446.36 350.93 446.41 350.15 C 446.46 349.37 446.49 348.46 446.49 347.41 L 446.49 346.06 L 447.58 346.06 L 447.58 347.41 C 447.58 348.48 447.55 349.4 447.51 350.19 M 444.64 354.84 L 443.55 354.84 L 443.55 350.41 L 444.64 350.41 Z M 441.6 354.84 L 440.5 354.84 L 440.5 350.41 L 441.6 350.41 Z M 446.84 346.97 L 438.91 346.97 L 438.91 346.06 L 446.84 346.06 Z M 448.9 355.41 L 437.75 355.41 L 437.75 354.5 L 448.9 354.5 Z M 448.9 355.41 "/>
<path fill-rule="nonzero" fill="rgb(31.5%, 43.01%, 74.63%)" fill-opacity="1" d="M 464.89 350.74 L 462.62 350.74 L 462.62 349.83 L 464.89 349.83 Z M 462.91 357.15 L 461.81 357.15 L 461.81 344.8 L 462.91 344.8 Z M 459.23 347.05 L 454.09 347.05 L 454.09 346.14 L 459.23 346.14 Z M 458.38 351.13 C 457.47 352.62 456.05 353.84 454.13 354.8 L 453.52 353.95 C 454.65 353.38 455.59 352.7 456.36 351.93 C 457.12 351.16 457.7 350.3 458.08 349.36 C 458.46 348.41 458.65 347.4 458.65 346.3 L 458.65 346.14 L 459.75 346.14 C 459.75 347.98 459.29 349.64 458.38 351.13 "/>
<path fill-rule="nonzero" fill="rgb(31.5%, 43.01%, 74.63%)" fill-opacity="1" d="M 475.89 349.43 L 467.52 349.43 L 467.52 348.53 L 475.89 348.53 Z M 468.61 348.98 L 467.52 348.98 L 467.52 345.25 L 468.61 345.25 Z M 475.95 356.85 L 467.43 356.85 L 467.43 355.95 L 475.95 355.95 Z M 468.54 356.18 L 467.43 356.18 L 467.43 353.25 L 468.54 353.25 Z M 477.18 352.01 L 466 352.01 L 466 351.1 L 477.18 351.1 Z M 477.18 352.01 "/>
<path fill-rule="nonzero" fill="rgb(31.5%, 43.01%, 74.63%)" fill-opacity="1" d="M 489.04 357.15 L 487.97 357.15 L 487.97 344.8 L 489.04 344.8 Z M 486.54 356.52 L 485.48 356.52 L 485.48 345.1 L 486.54 345.1 Z M 485.94 350.44 L 482.82 350.44 L 482.82 349.53 L 485.94 349.53 Z M 482.32 353.17 C 482.96 353.13 483.61 353.04 484.27 352.9 L 484.38 353.82 C 483.71 353.96 483.04 354.05 482.39 354.1 C 481.73 354.15 480.88 354.17 479.82 354.17 L 479.03 354.17 L 479.03 353.24 L 479.82 353.24 C 480.85 353.24 481.68 353.22 482.32 353.17 M 483.66 347.23 L 480.12 347.23 L 480.12 353.61 L 479.03 353.61 L 479.03 346.32 L 483.66 346.32 Z M 483.66 347.23 "/>
<path fill-rule="nonzero" fill="rgb(31.5%, 43.01%, 74.63%)" fill-opacity="1" d="M 495.87 355.89 C 495.27 355.67 494.77 355.36 494.35 354.96 L 494.77 354.05 C 495.26 354.43 495.75 354.72 496.23 354.92 C 496.71 355.12 497.21 355.22 497.71 355.22 C 498.41 355.22 498.94 355.05 499.31 354.72 C 499.68 354.39 499.86 353.92 499.86 353.31 C 499.86 352.71 499.67 352.25 499.29 351.95 C 498.91 351.64 498.34 351.48 497.59 351.48 L 496.42 351.48 L 496.42 350.51 L 497.37 350.51 C 498.09 350.51 498.65 350.35 499.05 350.02 C 499.44 349.69 499.63 349.22 499.63 348.6 C 499.63 348.08 499.47 347.67 499.15 347.38 C 498.82 347.08 498.37 346.93 497.79 346.93 C 497.32 346.93 496.84 347.03 496.37 347.22 C 495.89 347.41 495.42 347.7 494.93 348.08 L 494.51 347.16 C 494.92 346.77 495.42 346.46 496.01 346.24 C 496.59 346.02 497.2 345.91 497.82 345.91 C 498.43 345.91 498.97 346.02 499.43 346.23 C 499.88 346.44 500.23 346.75 500.48 347.14 C 500.72 347.54 500.84 348 500.84 348.52 C 500.82 349.14 500.66 349.66 500.34 350.1 C 500.01 350.54 499.57 350.84 499.02 351 L 498.96 350.87 C 499.64 351.01 500.17 351.3 500.53 351.73 C 500.89 352.15 501.07 352.7 501.07 353.38 C 501.07 353.96 500.93 354.46 500.66 354.89 C 500.38 355.32 500 355.65 499.49 355.88 C 498.98 356.11 498.39 356.22 497.72 356.22 C 497.08 356.22 496.46 356.11 495.87 355.89 "/>
<path fill-rule="nonzero" fill="rgb(31.5%, 43.01%, 74.63%)" fill-opacity="1" d="M 508.2 354.16 C 508.58 353.49 508.77 352.46 508.77 351.07 C 508.77 349.68 508.58 348.65 508.2 347.98 C 507.81 347.32 507.22 346.99 506.43 346.99 C 505.64 346.99 505.05 347.32 504.67 347.98 C 504.29 348.65 504.1 349.68 504.1 351.07 C 504.1 352.46 504.29 353.49 504.67 354.16 C 505.05 354.82 505.64 355.15 506.43 355.15 C 507.22 355.15 507.81 354.82 508.2 354.16 M 504.51 355.63 C 503.98 355.23 503.58 354.64 503.3 353.88 C 503.03 353.11 502.89 352.17 502.89 351.07 C 502.89 349.97 503.03 349.04 503.3 348.27 C 503.58 347.5 503.98 346.91 504.51 346.51 C 505.04 346.11 505.68 345.91 506.43 345.91 C 507.19 345.91 507.83 346.11 508.36 346.51 C 508.89 346.91 509.29 347.5 509.56 348.27 C 509.83 349.04 509.97 349.97 509.97 351.07 C 509.97 352.17 509.83 353.11 509.56 353.88 C 509.29 354.64 508.89 355.23 508.36 355.63 C 507.83 356.03 507.19 356.23 506.43 356.23 C 505.68 356.23 505.04 356.03 504.51 355.63 "/>
<path fill-rule="nonzero" fill="rgb(31.5%, 43.01%, 74.63%)" fill-opacity="1" d="M 521.51 351.14 L 520.4 351.14 L 520.4 344.82 L 521.51 344.82 Z M 521.93 356.98 L 513.57 356.98 L 513.57 356.09 L 521.93 356.09 Z M 521.51 354.73 L 514.65 354.73 L 514.65 356.6 L 513.57 356.6 L 513.57 353.9 L 520.41 353.9 L 520.41 352.63 L 513.55 352.63 L 513.55 351.74 L 521.51 351.74 Z M 513.79 346.41 C 513.47 346.57 513.22 346.79 513.04 347.06 C 512.86 347.34 512.77 347.66 512.77 348.01 C 512.77 348.36 512.86 348.67 513.04 348.95 C 513.22 349.23 513.47 349.44 513.79 349.59 C 514.11 349.74 514.47 349.82 514.87 349.82 C 515.27 349.82 515.63 349.74 515.95 349.59 C 516.27 349.44 516.52 349.23 516.7 348.95 C 516.88 348.67 516.97 348.35 516.97 348 C 516.97 347.64 516.88 347.33 516.7 347.05 C 516.52 346.78 516.27 346.57 515.95 346.41 C 515.63 346.26 515.27 346.18 514.87 346.18 C 514.47 346.18 514.11 346.26 513.79 346.41 M 516.51 345.62 C 516.99 345.85 517.37 346.17 517.64 346.59 C 517.92 347 518.05 347.47 518.05 348 C 518.05 348.54 517.92 349.01 517.64 349.43 C 517.37 349.84 516.99 350.16 516.51 350.39 C 516.03 350.61 515.48 350.73 514.87 350.73 C 514.26 350.73 513.71 350.61 513.23 350.39 C 512.75 350.16 512.37 349.84 512.1 349.43 C 511.83 349.01 511.69 348.54 511.69 348 C 511.69 347.47 511.83 347 512.1 346.59 C 512.37 346.17 512.75 345.85 513.24 345.62 C 513.73 345.38 514.27 345.27 514.87 345.27 C 515.48 345.27 516.03 345.38 516.51 345.62 "/>
<path fill-rule="nonzero" fill="rgb(31.5%, 43.01%, 74.63%)" fill-opacity="1" d="M 537.24 351.12 L 536.13 351.12 L 536.13 344.8 L 537.24 344.8 Z M 536.31 348.68 L 533.44 348.68 L 533.44 347.79 L 536.31 347.79 Z M 537.65 357.04 L 529.33 357.04 L 529.33 356.14 L 537.65 356.14 Z M 537.24 354.7 L 530.44 354.7 L 530.44 356.67 L 529.33 356.67 L 529.33 353.84 L 536.13 353.84 L 536.13 352.57 L 529.3 352.57 L 529.3 351.67 L 537.24 351.67 Z M 533.07 346.32 L 527.94 346.32 L 527.94 345.42 L 533.07 345.42 Z M 531.86 349.19 C 530.88 350.2 529.48 350.93 527.67 351.4 L 527.29 350.51 C 528.85 350.12 530.06 349.53 530.91 348.73 C 531.76 347.94 532.19 347.01 532.19 345.92 L 532.19 345.42 L 533.35 345.42 C 533.35 346.93 532.86 348.19 531.86 349.19 "/>
<path fill-rule="nonzero" fill="rgb(31.5%, 43.01%, 74.63%)" fill-opacity="1" d="M 549.79 357.16 L 548.7 357.16 L 548.7 344.8 L 549.79 344.8 Z M 549 348.54 L 546.25 348.54 L 546.25 347.63 L 549 347.63 Z M 548.91 351.92 L 546.17 351.92 L 546.17 351 L 548.91 351 Z M 543.84 353.27 C 544.66 353.23 545.51 353.13 546.4 353 L 546.5 353.91 C 545.59 354.05 544.72 354.16 543.89 354.21 C 543.06 354.27 542.11 354.29 541.04 354.29 L 540.12 354.29 L 540.12 353.35 L 541.04 353.35 C 542.09 353.35 543.03 353.32 543.84 353.27 M 545.47 350.33 L 541.21 350.33 L 541.21 353.57 L 540.12 353.57 L 540.12 349.42 L 544.38 349.42 L 544.38 346.84 L 540.09 346.84 L 540.09 345.92 L 545.47 345.92 Z M 545.47 350.33 "/>
<path fill-rule="nonzero" fill="rgb(31.5%, 43.01%, 74.63%)" fill-opacity="1" d="M 562.38 357.16 L 561.27 357.16 L 561.27 344.8 L 562.38 344.8 Z M 561.82 349.92 L 558.39 349.92 L 558.39 349.01 L 561.82 349.01 Z M 556.95 350.28 C 557.23 350.99 557.61 351.62 558.1 352.18 C 558.58 352.73 559.12 353.15 559.71 353.43 L 559.06 354.32 C 558.41 353.98 557.82 353.5 557.3 352.86 C 556.78 352.22 556.37 351.49 556.08 350.68 C 555.78 349.86 555.63 349 555.63 348.09 L 555.63 345.88 L 556.54 345.88 L 556.54 348.09 C 556.54 348.84 556.67 349.57 556.95 350.28 M 555.89 350.76 C 555.59 351.6 555.18 352.36 554.66 353.02 C 554.14 353.69 553.56 354.19 552.91 354.54 L 552.22 353.65 C 552.81 353.36 553.35 352.92 553.84 352.33 C 554.34 351.75 554.72 351.09 555 350.35 C 555.28 349.61 555.41 348.86 555.41 348.09 L 555.41 345.88 L 556.33 345.88 L 556.33 348.09 C 556.33 349.02 556.18 349.91 555.89 350.76 "/>
<path fill-rule="nonzero" fill="rgb(31.5%, 43.01%, 74.63%)" fill-opacity="1" d="M 431.32 375.73 L 430.21 375.73 L 430.21 373.45 L 431.32 373.45 Z M 429.07 370.14 C 428.59 370.27 428.22 370.45 427.96 370.68 C 427.69 370.92 427.56 371.19 427.56 371.51 C 427.56 371.83 427.69 372.11 427.95 372.34 C 428.21 372.58 428.58 372.76 429.06 372.89 C 429.54 373.02 430.11 373.08 430.75 373.08 C 431.4 373.08 431.96 373.02 432.45 372.89 C 432.93 372.76 433.3 372.58 433.56 372.34 C 433.82 372.11 433.95 371.83 433.95 371.51 C 433.95 371.19 433.82 370.92 433.56 370.68 C 433.3 370.45 432.93 370.27 432.45 370.14 C 431.96 370.02 431.4 369.95 430.75 369.95 C 430.11 369.95 429.55 370.02 429.07 370.14 M 435.1 380.75 L 426.63 380.75 L 426.63 379.84 L 435.1 379.84 Z M 427.74 380.12 L 426.63 380.12 L 426.63 377.19 L 427.74 377.19 Z M 433.05 369.35 C 433.71 369.54 434.21 369.83 434.56 370.2 C 434.92 370.57 435.1 371.02 435.1 371.52 C 435.1 372.02 434.92 372.46 434.56 372.83 C 434.21 373.2 433.71 373.48 433.05 373.68 C 432.41 373.87 431.64 373.97 430.75 373.97 C 429.87 373.97 429.11 373.87 428.45 373.68 C 427.8 373.48 427.3 373.2 426.95 372.83 C 426.6 372.46 426.43 372.02 426.43 371.52 C 426.43 371.02 426.6 370.57 426.95 370.2 C 427.3 369.83 427.8 369.54 428.46 369.35 C 429.12 369.15 429.88 369.05 430.75 369.05 C 431.64 369.05 432.41 369.15 433.05 369.35 M 436.34 376.17 L 425.18 376.17 L 425.18 375.25 L 436.34 375.25 Z M 436.34 376.17 "/>
<path fill-rule="nonzero" fill="rgb(31.5%, 43.01%, 74.63%)" fill-opacity="1" d="M 449.26 374.53 L 446.98 374.53 L 446.98 373.6 L 449.26 373.6 Z M 447.24 381.04 L 446.13 381.04 L 446.13 368.68 L 447.24 368.68 Z M 442.41 377.05 C 443.28 376.99 444.16 376.88 445.04 376.71 L 445.15 377.63 C 444.22 377.79 443.31 377.91 442.43 377.97 C 441.54 378.04 440.47 378.07 439.23 378.07 L 438.25 378.07 L 438.25 377.14 L 439.23 377.14 C 440.48 377.14 441.54 377.11 442.41 377.05 M 443.8 374.25 L 439.34 374.25 L 439.34 377.52 L 438.25 377.52 L 438.25 373.34 L 442.7 373.34 L 442.7 370.76 L 438.23 370.76 L 438.23 369.84 L 443.8 369.84 Z M 443.8 374.25 "/>
<path fill-rule="nonzero" fill="rgb(31.5%, 43.01%, 74.63%)" fill-opacity="1" d="M 460.41 377.71 L 459.31 377.71 L 459.31 368.7 L 460.41 368.7 Z M 460.8 380.75 L 452.51 380.75 L 452.51 379.84 L 460.8 379.84 Z M 453.6 380.15 L 452.51 380.15 L 452.51 376.79 L 453.6 376.79 Z M 452.72 370.79 C 452.4 370.96 452.14 371.21 451.96 371.52 C 451.77 371.84 451.68 372.2 451.68 372.59 C 451.68 372.99 451.77 373.35 451.96 373.66 C 452.14 373.98 452.4 374.22 452.72 374.4 C 453.04 374.58 453.41 374.66 453.8 374.66 C 454.21 374.66 454.57 374.58 454.9 374.4 C 455.23 374.22 455.48 373.98 455.67 373.66 C 455.86 373.35 455.95 372.99 455.95 372.59 C 455.95 372.2 455.86 371.84 455.67 371.52 C 455.48 371.21 455.23 370.96 454.9 370.79 C 454.57 370.61 454.21 370.53 453.8 370.53 C 453.41 370.53 453.04 370.61 452.72 370.79 M 455.45 369.95 C 455.95 370.21 456.33 370.57 456.61 371.03 C 456.88 371.48 457.02 372.01 457.02 372.59 C 457.02 373.18 456.88 373.71 456.61 374.16 C 456.33 374.62 455.95 374.98 455.45 375.25 C 454.95 375.5 454.41 375.63 453.8 375.63 C 453.2 375.63 452.66 375.5 452.17 375.25 C 451.68 374.98 451.29 374.62 451.01 374.16 C 450.73 373.71 450.6 373.18 450.6 372.59 C 450.6 372.01 450.73 371.48 451.01 371.03 C 451.29 370.57 451.68 370.21 452.17 369.95 C 452.66 369.69 453.2 369.56 453.8 369.56 C 454.41 369.56 454.95 369.69 455.45 369.95 "/>
<path fill-rule="nonzero" fill="rgb(31.5%, 43.01%, 74.63%)" fill-opacity="1" d="M 472.79 371.42 C 473.21 371.92 473.77 372.34 474.45 372.69 C 475.12 373.04 475.84 373.28 476.6 373.39 L 476.14 374.3 C 475.28 374.14 474.47 373.86 473.71 373.44 C 472.96 373.03 472.35 372.51 471.89 371.89 C 471.43 371.27 471.2 370.59 471.2 369.83 L 471.2 369.13 L 472.16 369.13 L 472.16 369.83 C 472.16 370.39 472.37 370.93 472.79 371.42 M 472.11 381.04 L 471.01 381.04 L 471.01 376.33 L 472.11 376.33 Z M 471.29 371.91 C 470.83 372.52 470.22 373.04 469.47 373.45 C 468.71 373.86 467.9 374.14 467.02 374.3 L 466.57 373.39 C 467.34 373.28 468.06 373.05 468.74 372.71 C 469.41 372.36 469.96 371.94 470.38 371.44 C 470.8 370.94 471.01 370.4 471.01 369.83 L 471.01 369.13 L 471.98 369.13 L 471.98 369.83 C 471.98 370.59 471.75 371.29 471.29 371.91 M 477.16 376.56 L 466 376.56 L 466 375.65 L 477.16 375.65 Z M 477.16 376.56 "/>
<path fill-rule="nonzero" fill="rgb(31.5%, 43.01%, 74.63%)" fill-opacity="1" d="M 488.71 375.32 L 487.6 375.32 L 487.6 368.7 L 488.71 368.7 Z M 488.09 372.56 L 484.76 372.56 L 484.76 371.65 L 488.09 371.65 Z M 487.6 378.38 L 481.92 378.38 L 481.92 379.96 L 487.6 379.96 Z M 481.92 377.49 L 487.6 377.49 L 487.6 375.93 L 488.71 375.93 L 488.71 380.86 L 480.82 380.86 L 480.82 375.93 L 481.92 375.93 Z M 480.84 370.44 C 480.52 370.6 480.27 370.82 480.09 371.11 C 479.91 371.41 479.82 371.74 479.82 372.11 C 479.82 372.48 479.91 372.82 480.09 373.11 C 480.27 373.4 480.53 373.62 480.85 373.79 C 481.17 373.95 481.54 374.04 481.93 374.04 C 482.34 374.04 482.7 373.95 483.01 373.79 C 483.33 373.62 483.58 373.4 483.77 373.11 C 483.95 372.82 484.04 372.48 484.04 372.11 C 484.04 371.74 483.95 371.41 483.77 371.11 C 483.58 370.82 483.33 370.6 483.01 370.44 C 482.7 370.28 482.34 370.2 481.93 370.2 C 481.52 370.2 481.16 370.28 480.84 370.44 M 483.56 369.62 C 484.04 369.86 484.42 370.2 484.7 370.63 C 484.96 371.06 485.1 371.55 485.1 372.11 C 485.1 372.68 484.96 373.18 484.7 373.61 C 484.42 374.04 484.04 374.38 483.56 374.62 C 483.08 374.86 482.54 374.98 481.93 374.98 C 481.32 374.98 480.78 374.86 480.3 374.62 C 479.81 374.38 479.44 374.04 479.16 373.61 C 478.89 373.18 478.75 372.68 478.75 372.11 C 478.75 371.55 478.89 371.06 479.16 370.63 C 479.44 370.2 479.81 369.86 480.3 369.62 C 480.78 369.38 481.32 369.26 481.93 369.26 C 482.54 369.26 483.08 369.38 483.56 369.62 "/>
<path fill-rule="nonzero" fill="rgb(31.5%, 43.01%, 74.63%)" fill-opacity="1" d="M 502.64 374.71 L 500.36 374.71 L 500.36 373.78 L 502.64 373.78 Z M 500.61 381.04 L 499.51 381.04 L 499.51 368.7 L 500.61 368.7 Z M 495.29 371.09 L 494.18 371.09 L 494.18 368.85 L 495.29 368.85 Z M 493.75 373.78 C 493.46 373.94 493.23 374.16 493.06 374.45 C 492.89 374.74 492.8 375.07 492.8 375.45 C 492.8 375.82 492.89 376.15 493.06 376.43 C 493.23 376.72 493.46 376.95 493.75 377.11 C 494.05 377.27 494.38 377.36 494.76 377.36 C 495.12 377.36 495.45 377.27 495.75 377.11 C 496.05 376.95 496.29 376.72 496.45 376.43 C 496.61 376.15 496.7 375.82 496.7 375.45 C 496.7 375.07 496.61 374.74 496.45 374.45 C 496.29 374.16 496.05 373.94 495.75 373.78 C 495.45 373.61 495.12 373.53 494.76 373.53 C 494.38 373.53 494.05 373.61 493.75 373.78 M 496.3 372.97 C 496.75 373.22 497.11 373.55 497.36 373.98 C 497.62 374.41 497.75 374.9 497.75 375.45 C 497.75 375.99 497.62 376.48 497.36 376.91 C 497.11 377.33 496.75 377.67 496.3 377.91 C 495.84 378.15 495.33 378.27 494.76 378.27 C 494.18 378.27 493.67 378.15 493.21 377.91 C 492.76 377.67 492.4 377.33 492.14 376.91 C 491.88 376.48 491.75 375.99 491.75 375.45 C 491.75 374.9 491.88 374.41 492.14 373.98 C 492.4 373.55 492.76 373.22 493.21 372.97 C 493.67 372.73 494.18 372.6 494.76 372.6 C 495.33 372.6 495.84 372.73 496.3 372.97 M 498.34 371.58 L 491.06 371.58 L 491.06 370.66 L 498.34 370.66 Z M 498.34 371.58 "/>
<path fill-rule="nonzero" fill="rgb(31.5%, 43.01%, 74.63%)" fill-opacity="1" d="M 513.8 381.03 L 512.7 381.03 L 512.7 368.68 L 513.8 368.68 Z M 509.55 370.92 L 504.41 370.92 L 504.41 370.02 L 509.55 370.02 Z M 509.59 373.46 C 509.2 374.53 508.57 375.51 507.72 376.4 C 506.87 377.29 505.78 378.07 504.44 378.72 L 503.85 377.83 C 505.03 377.27 506 376.6 506.77 375.83 C 507.55 375.06 508.12 374.21 508.51 373.27 C 508.89 372.34 509.08 371.31 509.08 370.2 L 509.08 370.02 L 510.18 370.02 C 510.18 371.25 509.98 372.4 509.59 373.46 "/>
<path fill-rule="nonzero" fill="rgb(31.5%, 43.01%, 74.63%)" fill-opacity="1" d="M 522.37 378.96 L 521.28 378.96 L 521.28 375.93 L 522.37 375.93 Z M 526.34 376.26 L 517.66 376.26 L 517.66 375.35 L 526.34 375.35 Z M 526.05 373.34 L 518.75 373.34 L 518.75 375.81 L 517.66 375.81 L 517.66 372.45 L 524.95 372.45 L 524.95 370.51 L 517.62 370.51 L 517.62 369.61 L 526.05 369.61 Z M 527.43 379.51 L 516.25 379.51 L 516.25 378.58 L 527.43 378.58 Z M 527.43 379.51 "/>
<path fill-rule="nonzero" fill="rgb(31.5%, 43.01%, 74.63%)" fill-opacity="1" d="M 543.34 372.9 L 541.21 372.9 L 541.21 371.97 L 543.34 371.97 Z M 541.51 376.12 L 540.41 376.12 L 540.41 368.7 L 541.51 368.7 Z M 536.18 370.46 L 535.07 370.46 L 535.07 368.59 L 536.18 368.59 Z M 534.85 379.96 L 540.42 379.96 L 540.42 377.72 L 534.85 377.72 Z M 541.51 380.86 L 533.77 380.86 L 533.77 376.82 L 541.51 376.82 Z M 534.24 372.74 C 533.89 372.98 533.71 373.31 533.71 373.72 C 533.71 374.13 533.89 374.46 534.24 374.71 C 534.59 374.95 535.05 375.07 535.63 375.07 C 536.19 375.07 536.65 374.95 536.99 374.71 C 537.34 374.46 537.51 374.13 537.51 373.72 C 537.51 373.31 537.34 372.98 536.99 372.74 C 536.65 372.49 536.19 372.37 535.63 372.37 C 535.05 372.37 534.59 372.49 534.24 372.74 M 537.16 371.8 C 537.61 371.98 537.95 372.24 538.2 372.57 C 538.44 372.91 538.56 373.3 538.56 373.74 C 538.56 374.16 538.44 374.54 538.2 374.88 C 537.95 375.21 537.61 375.46 537.16 375.65 C 536.72 375.83 536.21 375.92 535.63 375.92 C 535.04 375.92 534.52 375.83 534.07 375.65 C 533.62 375.46 533.28 375.21 533.03 374.88 C 532.79 374.54 532.66 374.16 532.66 373.74 C 532.66 373.3 532.79 372.91 533.03 372.57 C 533.28 372.24 533.62 371.98 534.07 371.8 C 534.52 371.61 535.04 371.52 535.63 371.52 C 536.21 371.52 536.72 371.61 537.16 371.8 M 539.26 370.91 L 531.98 370.91 L 531.98 370 L 539.26 370 Z M 539.26 370.91 "/>
<path fill-rule="nonzero" fill="rgb(31.5%, 43.01%, 74.63%)" fill-opacity="1" d="M 544.67 378.49 L 546.16 378.49 L 546.16 379.98 L 544.67 379.98 Z M 544.67 378.49 "/>
<path fill-rule="nonzero" fill="rgb(13.73%, 12.16%, 12.55%)" fill-opacity="1" d="M 481.69 291.62 L 476.47 291.62 C 476.43 291.93 476.52 292.3 476.47 292.58 C 476.3 293.42 475.96 293.98 476.2 294.78 C 476.3 295.14 475.7 297.07 475.64 297.53 C 475.54 298.54 475.54 299.71 476.33 300.41 C 476.66 300.5 477.23 299.91 477.43 299.86 C 478.15 299.7 478.64 300.3 479.35 300.14 C 479.46 300.11 479.52 299.89 479.63 299.86 C 479.8 299.81 480.02 299.92 480.18 299.86 C 480.34 299.8 480.41 299.45 480.87 299.59 C 480.96 299.5 480.79 297.95 480.87 297.53 C 480.96 296.93 480.72 296.4 480.87 295.88 C 480.91 295.73 481.37 295.48 481.41 295.33 C 481.54 294.87 481.58 293.54 481.69 292.86 C 481.75 292.48 481.65 292.02 481.69 291.62 M 469.6 283.65 C 469.65 283.61 469.86 283.71 470.01 283.65 C 470.13 283.6 470.19 283.39 470.29 283.38 C 470.54 283.33 471.12 283.33 471.39 283.38 C 471.53 283.4 473.2 283.69 473.31 283.65 C 474.54 283.28 474.83 283.35 476.05 283.65 C 477.72 284.07 479.66 284.22 481.28 283.93 C 481.49 283.89 483.96 284.12 484.3 284.2 C 484.5 284.25 485.07 284.84 485.4 284.75 C 485.89 284.61 486.87 284.27 487.32 284.2 C 487.96 284.11 489.19 284.2 489.38 284.89 C 489.62 285.74 489.21 287.47 489.38 288.46 C 489.42 288.66 490 289.58 489.93 289.84 C 489.47 291.51 489.7 292.11 489.93 293.68 C 490.13 294.99 489.01 296.63 489.11 296.98 C 489.48 298.31 488.46 301.18 488.83 303.3 C 488.93 303.84 489.14 303.45 488.83 304.4 C 488.78 304.56 488.88 304.77 488.83 304.95 C 488.8 305.05 488.59 305.11 488.56 305.22 C 488.5 305.46 488.62 305.81 488.56 306.05 C 488.54 306.13 487.41 307.26 487.32 307.28 C 486.92 307.39 486.17 307.22 485.67 307.28 C 484.92 307.38 484.28 307.66 483.2 307.56 C 481.98 307.44 482.14 307.3 480.73 307.56 C 479.75 307.74 479.64 307.2 478.53 307.56 C 478.08 307.7 474.09 308.18 473.86 308.11 C 472.36 307.65 471.2 308.2 469.73 308.38 C 469.39 308.43 468.36 308.46 468.09 308.38 C 468 308.36 467.1 307.56 466.85 307.42 C 466.6 306.8 466.44 305.97 466.57 305.22 C 466.59 305.12 466.82 305.06 466.85 304.95 C 467.45 302.55 466.95 299.21 467.68 296.98 C 468.34 294.95 468.99 291.38 468.5 289.29 C 468.34 288.6 468.76 288.29 468.77 288.18 C 468.91 287.27 468.68 286.12 468.77 285.16 C 468.93 284.75 469.42 284.39 469.6 284.06 C 469.67 283.93 469.55 283.7 469.6 283.65 "/>
<path fill-rule="nonzero" fill="rgb(13.73%, 12.16%, 12.55%)" fill-opacity="1" d="M 455.59 303.44 L 455.59 307.7 C 455.59 307.79 455.32 307.87 455.31 307.97 C 455.25 308.61 455.45 309.66 455.31 310.17 C 455.29 310.23 454.41 311.11 454.35 311.13 C 453.67 311.32 453.31 310.86 453.25 310.86 C 453.19 310.86 452.85 311.29 452.15 311.13 C 449.87 310.6 447 311.55 444.73 310.86 C 444.2 310.69 444.04 311.09 443.91 311.13 C 443.43 311.27 442.94 310.67 442.26 310.86 C 442.12 310.89 441.64 311.65 441.57 311.82 C 441.22 312.7 441.46 313.62 441.3 314.56 C 441.2 315.08 440.6 315.65 440.75 316.49 C 440.96 317.73 440.37 318 440.2 318.96 C 440.08 319.59 440.49 321.38 439.79 321.57 C 439.38 321.68 435.37 321.67 434.84 321.57 C 434.74 321.55 434.68 321.33 434.56 321.3 C 434.07 321.14 433.62 321.75 433.05 321.57 C 433.12 320.91 432.96 320.14 433.05 319.51 C 433.19 318.59 434.08 317.6 433.88 316.49 C 433.63 315.12 434.27 314.08 434.43 312.64 C 434.47 312.24 434.51 311.02 434.43 310.72 C 434.41 310.65 433.53 309.77 433.46 309.76 C 432.6 309.52 430.69 309.89 429.62 309.76 C 428.51 309.62 428.46 309.25 427.14 309.48 C 425.39 309.8 422.82 309.25 420.96 309.48 C 421.01 308.71 420.89 307.91 420.96 307.14 C 421.07 305.91 421.5 304.42 421.24 303.3 C 421.18 303.03 421.28 302.64 421.24 302.34 C 421.72 302.29 422.29 302.41 422.75 302.34 C 422.86 302.32 423.16 301.9 423.85 302.06 C 424.61 302.24 428.45 302.73 429.07 302.61 C 430.41 302.37 432.1 302.34 433.46 302.61 C 435.74 303.07 438.32 302.74 440.61 303.16 C 441.61 303.34 444.21 302.69 445.28 302.89 C 447.1 303.22 448.43 303.7 450.23 303.44 C 451.78 303.21 453 303.63 454.62 303.16 C 454.97 303.06 455.14 303.58 455.59 303.44 "/>
<path fill-rule="nonzero" fill="rgb(13.73%, 12.16%, 12.55%)" fill-opacity="1" d="M 499.28 280.63 C 499.67 280.67 500.14 280.56 500.51 280.63 C 501.14 280.75 501.6 280.78 502.16 280.9 C 502.91 281.07 504.16 280.73 504.91 280.9 C 505.01 280.93 505.07 281.12 505.18 281.18 C 505.27 281.22 505.4 281.14 505.46 281.18 C 506.03 281.54 506.26 282.61 506.14 283.24 C 505.6 286.21 506.35 289.75 505.6 293.13 C 505.29 294.5 505.34 296.14 505.05 297.8 C 504.75 299.46 504.65 301.81 504.22 303.3 C 504.18 303.45 503.71 303.7 503.67 303.85 C 503.42 304.76 503.86 306.63 503.67 307.7 C 503.66 307.79 503.14 308.7 503.12 308.79 C 502.84 310.36 503.33 312.63 503.12 314.29 L 502.44 314.98 L 501.06 315.25 C 500.71 315.78 500.69 315.28 500.51 315.25 C 499.5 315.08 498.65 315.48 498.04 315.53 C 497.41 315.57 495.81 315.64 495.29 315.53 C 495.2 315.5 495.14 315.3 495.02 315.25 C 494.93 315.21 494.8 315.29 494.74 315.25 C 494.25 314.96 494.11 314.39 493.78 314.02 C 493.62 313.33 494.04 313.02 494.05 312.92 C 494.18 312.03 494.23 310.97 494.33 310.17 C 494.54 308.52 494.31 305.77 494.61 304.4 C 494.62 304.3 495.13 303.67 495.15 303.57 C 495.34 302.69 495.22 301.33 495.43 300.28 C 495.58 299.52 495.79 298.56 495.98 297.8 C 496.27 296.62 496.04 295.47 496.25 294.5 C 496.3 294.28 497.03 293.36 497.08 293.13 C 497.36 291.81 496.95 290.34 497.35 288.73 C 497.66 287.49 497.6 286.13 497.9 284.89 C 498.18 283.73 499.07 282.64 499.28 281.59 C 499.33 281.31 499.24 280.94 499.28 280.63 "/>
<path fill-rule="nonzero" fill="rgb(13.73%, 12.16%, 12.55%)" fill-opacity="1" d="M 437.18 298.77 C 435.68 298.61 433.81 298.98 432.37 298.77 C 432.27 298.75 432.2 298.52 432.09 298.49 C 431.41 298.33 431.1 298.75 430.99 298.77 C 430.28 298.87 429.4 298.69 428.66 298.77 C 428.75 298.06 428.52 297.07 428.66 296.43 C 428.68 296.34 429.18 295.7 429.21 295.61 C 429.31 295.14 429.12 294.45 429.21 293.96 C 429.27 293.6 429.97 292.57 430.03 292.31 C 430.14 291.8 429.96 291.07 430.03 290.52 C 429.55 290.3 429.16 290.79 429.07 290.8 C 427.61 291.01 426.51 290.7 424.95 291.07 C 424.57 291.16 423.83 291.06 423.71 290.66 C 423.54 290.06 424.36 289.71 423.71 289.29 C 424.59 288.09 424.05 286.39 424.26 285.16 C 424.34 284.67 424.14 283.93 424.26 283.52 C 424.3 283.38 425.14 282.84 425.22 282.83 C 425.68 282.73 426.36 282.89 426.87 282.83 C 428.76 282.59 431.11 282.13 432.91 282.55 C 433.79 282.76 435.5 281.73 435.94 281.73 C 436.03 281.73 436.11 281.98 436.21 282 C 436.92 282.12 439.16 281.68 439.37 282.41 C 439.24 282.96 439.8 283.29 439.65 283.79 C 439.32 284.85 439.56 285.41 439.37 286.26 C 439.35 286.36 438.84 286.99 438.82 287.09 C 438.52 288.48 438.34 289.85 438 291.21 C 437.86 291.77 437.37 295 437.45 295.33 C 437.7 296.4 437.31 296.22 437.18 296.98 C 437.08 297.51 437.24 298.2 437.18 298.77 "/>
<path fill-rule="nonzero" fill="rgb(13.73%, 12.16%, 12.55%)" fill-opacity="1" d="M 454.76 282.28 C 454.77 282.81 455.19 283.14 455.04 283.79 C 454.89 284.41 454.38 285.92 454.48 286.54 C 454.74 288.03 453.85 290.78 453.66 292.58 C 453.54 293.72 453.88 295.44 453.66 296.43 C 453.64 296.53 453.43 296.59 453.39 296.7 C 453.31 296.89 453.19 297.41 453.11 297.53 C 452.38 298.68 451.11 298.05 449.95 298.21 C 449.85 298.23 449.79 298.46 449.68 298.49 C 449 298.65 448.69 298.23 448.58 298.21 C 448.05 298.14 445.8 298.32 445.69 298.21 C 445.74 297.64 445.63 297 445.69 296.43 C 445.93 294.34 446.4 292.57 446.79 290.66 C 446.85 290.38 446.75 290 446.79 289.7 C 445.9 289.54 445.46 288.96 444.46 289.15 C 444.35 289.17 444.28 289.41 444.18 289.42 C 443.7 289.48 442.73 289.49 442.26 289.42 C 441.4 289.3 441.46 288.37 441.57 287.64 C 441.84 285.84 441.91 285.36 441.57 283.52 C 441.34 282.27 442.07 281.41 443.08 280.9 C 443.95 280.88 444.61 281.35 445.55 281.18 C 447.02 280.92 448.37 281.41 449.95 281.18 C 451.84 280.9 452.11 281.43 453.52 282 C 453.68 282.07 453.91 281.94 454.07 282 C 454.24 282.06 454.31 282.42 454.76 282.28 "/>
<path fill-rule="nonzero" fill="rgb(100%, 100%, 100%)" fill-opacity="1" stroke-width="4" stroke-linecap="round" stroke-linejoin="round" stroke="rgb(13.73%, 12.16%, 12.55%)" stroke-opacity="1" stroke-miterlimit="10" d="M 0 0 L -1.55 1.46 L -2.59 3.62 L -4.21 5.35 L -5.78 7.12 L -7.5 8.75 L -9.24 10.4 L -11.55 11.23 L -13.21 13.06 L -15.62 13.6 L -17.76 14.57 L -19.71 16.08 L -21.93 16.99 L -24.31 17.34 L -26.55 18.19 L -28.98 18.19 L -31.21 19.35 L -33.63 19.36 L -36.03 19.23 L -38.41 19.31 L -40.78 19.97 L -43.17 19.85 L -45.56 19.66 L -47.94 19.48 L -50.26 18.63 L -52.67 18.68 L -55.01 18.35 L -57.4 18.21 L -59.57 17.03 L -62.1 17.31 L -64.21 16.09 L -66.52 15.49 L -68.68 14.49 L -70.66 13.15 L -72.78 12.11 L -74.67 10.69 L -76.62 9.38 L -78.82 8.35 L -80.78 6.96 L -82.3 5.11 L -83.78 3.24 L -85.02 1.2 L -86.97 -0.31 L -88.13 -2.4 L -89.08 -4.59 L -90.7 -6.43 L -90.79 -8.99 L -92.09 -11.01 L -93.15 -13.16 L -93.33 -15.58 L -94.04 -17.84 L -95.12 -20.03 L -95.16 -22.44 L -95.28 -24.82 L -96.02 -27.14 L -95.65 -29.54 L -96.19 -31.9 L -95.44 -34.26 L -96.03 -36.67 L -95 -38.96 L -94.69 -41.29 L -94.49 -43.65 L -94.41 -46.05 L -94.13 -48.44 L -92.58 -50.46 L -92.37 -52.88 L -91.92 -55.26 L -90.03 -57.01 L -89.28 -59.27 L -87.9 -61.18 L -86.32 -62.92 L -85.5 -65.33 L -83.94 -67.14 L -81.62 -68.14 L -80.02 -69.91 L -78.33 -71.62 L -76.27 -72.83 L -73.91 -73.52 L -72.32 -75.51 L -70.17 -76.56 L -67.82 -77.13 L -65.8 -78.48 L -63.36 -78.73 L -61.21 -79.78 L -58.74 -79.75 L -56.47 -80.36 L -54.28 -81.48 L -51.89 -81.52 L -49.5 -81.42 L -47.21 -82.52 L -44.82 -82.41 L -42.45 -81.8 L -40.06 -82.36 L -37.72 -81.79 L -35.41 -81.22 L -33.05 -81.06 L -30.79 -80.33 L -28.29 -80.6 L -26.06 -79.72 L -23.79 -79.02 L -21.7 -77.82 L -19.54 -76.85 L -17.23 -76.18 L -15.28 -74.8 L -13.09 -73.86 L -11.07 -72.61 L -9.18 -71.16 L -7.37 -69.61 L -5.41 -68.79 L -3.84 -70.34 L -2.31 -72.26 L -0.47 -73.89 L 1.64 -75.21 L 3.09 -77.27 L 5.12 -78.66 L 7 -80.26 L 9.35 -81.14 L 11.18 -82.87 L 13.53 -83.69 L 15.79 -84.63 L 18.04 -85.6 L 20.37 -86.36 L 22.69 -87.17 L 25.04 -87.9 L 27.48 -88.19 L 29.94 -88.36 L 32.38 -88.48 L 34.79 -88.96 L 37.24 -89.09 L 39.58 -88.71 L 41.93 -88.96 L 44.31 -89.2 L 46.66 -89.07 L 48.98 -88.62 L 51.33 -88.37 L 53.48 -87.14 L 55.92 -87.24 L 58.25 -86.83 L 60.42 -85.85 L 62.68 -85.15 L 64.89 -84.34 L 66.99 -83.26 L 69.05 -82.13 L 71.13 -81.04 L 73.12 -79.8 L 75.25 -78.8 L 77.46 -77.92 L 79.04 -76.04 L 81.4 -75.32 L 82.88 -73.39 L 84.8 -72.5 L 86.52 -73.81 L 88.86 -74.71 L 90.97 -75.89 L 92.56 -77.94 L 94.82 -78.88 L 97.09 -79.79 L 99.18 -81.05 L 101.55 -81.67 L 103.83 -82.47 L 105.78 -84.19 L 108.32 -84.23 L 110.46 -85.59 L 112.92 -85.81 L 115.38 -85.83 L 117.67 -86.98 L 120.11 -87.13 L 122.56 -87.05 L 125 -87.39 L 127.38 -86.31 L 129.77 -86.14 L 132.16 -85.84 L 134.65 -85.83 L 136.88 -84.79 L 139.07 -83.75 L 141.38 -83.03 L 143.87 -82.58 L 145.74 -80.93 L 148.06 -80.05 L 150.07 -78.64 L 152.08 -77.24 L 153.86 -75.56 L 155.72 -73.97 L 156.94 -71.74 L 158.68 -70.05 L 160.18 -68.14 L 161.65 -66.29 L 163.67 -64.8 L 164.35 -62.38 L 166.16 -60.69 L 166.84 -58.34 L 168.44 -56.46 L 169.17 -54.16 L 170.15 -51.97 L 170.06 -49.44 L 171.42 -47.34 L 171.44 -44.9 L 171.66 -42.54 L 172.01 -40.2 L 172.82 -37.86 L 172.86 -35.46 L 172.98 -33.05 L 172.41 -30.69 L 172.09 -28.32 L 171.87 -25.94 L 171.29 -23.61 L 170.88 -21.25 L 169.92 -19.04 L 168.82 -16.9 L 167.94 -14.7 L 167.15 -12.45 L 166.5 -10.09 L 164.78 -8.32 L 163.7 -6.19 L 162.52 -4.09 L 161.12 -2.13 L 159.62 -0.25 L 157.62 1.16 L 155.91 2.82 L 153.88 4.12 L 151.83 5.31 L 149.82 6.53 L 148.07 8.3 L 145.88 9.29 L 143.58 9.99 L 141.2 10.31 L 138.78 10.69 L 136.46 11.66 L 134.06 12.16 L 131.56 12.02 L 129.1 11.94 L 126.67 12.24 L 124.23 12.27 L 121.78 13.24 L 119.32 12.88 L 116.88 12.53 L 114.48 11.97 L 111.96 12.09 L 109.54 11.54 L 107.26 10.56 L 105.17 9.2 L 102.83 8.43 L 100.45 7.63 L 98.83 5.63 L 96.82 4.26 L 95.02 2.61 L 93.31 0.88 L 91.4 -0.74 L 90.17 1.36 L 89.24 3.65 L 87.1 5.01 L 85.98 7.21 L 83.79 8.39 L 82.12 10.1 L 80.18 11.47 L 78.22 12.8 L 76.18 14.02 L 74.41 15.76 L 72.36 17.07 L 70.13 18 L 67.83 18.75 L 65.35 18.88 L 63.13 19.87 L 60.76 20.23 L 58.4 20.71 L 56.01 20.95 L 53.65 21.61 L 51.2 20.8 L 48.82 21.59 L 46.42 21.12 L 44.02 20.92 L 41.54 21.4 L 39.21 20.28 L 36.8 19.99 L 34.31 20.19 L 31.91 19.76 L 29.48 19.45 L 27.21 18.46 L 24.97 17.46 L 22.74 16.51 L 20.48 15.68 L 18.1 15.11 L 15.76 14.37 L 13.53 13.35 L 11.63 11.76 L 9.38 10.72 L 7.78 8.8 L 5.71 7.48 L 4.47 5.3 L 2.38 3.9 L 1.31 1.67 Z M 0 0 " transform="matrix(1, 0, 0, -1, 186.6, 331.89)"/>
<path fill-rule="nonzero" fill="rgb(31.5%, 43.01%, 74.63%)" fill-opacity="1" d="M 126.97 362.25 C 125.77 363.82 125.54 366.09 126.42 367.88 C 126.79 368.62 127.34 369.29 128.05 369.72 C 128.85 370.2 129.8 370.38 130.72 370.5 C 131.99 370.66 133.34 370.75 134.49 370.2 C 136.38 369.3 137.16 367 137.23 364.91 C 137.25 364.43 137.24 363.93 137.08 363.47 C 136.84 362.78 136.29 362.24 135.75 361.73 C 133.3 359.41 129.13 359.42 126.97 362.25 "/>
<path fill-rule="nonzero" fill="rgb(100%, 100%, 100%)" fill-opacity="1" stroke-width="4" stroke-linecap="round" stroke-linejoin="round" stroke="rgb(13.73%, 12.16%, 12.55%)" stroke-opacity="1" stroke-miterlimit="10" d="M 0 0 L -0.19 -1.5 L -0.43 -2.96 L -0.63 -4.44 L -1.36 -5.76 L -1.99 -7.09 L -2.7 -8.42 L -3.75 -9.49 L -5 -10.31 L -6.23 -11.12 L -7.53 -11.83 L -8.91 -12.38 L -10.39 -12.56 L -11.86 -12.75 L -13.33 -12.58 L -14.82 -12.5 L -16.26 -12.13 " transform="matrix(1, 0, 0, -1, 155.17, 375.28)"/>
<path fill-rule="nonzero" fill="rgb(13.73%, 12.16%, 12.55%)" fill-opacity="1" d="M 113.87 350.18 C 114.2 351 114.72 351.75 115.44 352.25 C 116.3 352.84 117.38 353.03 118.42 353.04 C 119.01 353.04 119.61 352.99 120.15 352.75 C 121.46 352.19 122.11 350.71 122.41 349.32 C 124.25 340.88 110.91 342.86 113.87 350.18 "/>
<path fill-rule="nonzero" fill="rgb(13.73%, 12.16%, 12.55%)" fill-opacity="1" d="M 142.68 345.43 C 142.24 345.94 142 346.58 141.83 347.23 C 141.48 348.56 141.46 350.07 142.25 351.2 C 142.85 352.07 143.86 352.59 144.88 352.85 C 145.84 353.1 146.86 353.15 147.8 352.88 C 148.75 352.61 149.61 351.99 150.08 351.12 C 150.39 350.53 150.51 349.86 150.53 349.19 C 150.56 347.4 149.67 345.23 147.97 344.41 C 146.5 343.7 143.75 344.17 142.68 345.43 "/>
<path fill-rule="nonzero" fill="rgb(100%, 100%, 100%)" fill-opacity="1" stroke-width="4" stroke-linecap="round" stroke-linejoin="round" stroke="rgb(13.73%, 12.16%, 12.55%)" stroke-opacity="1" stroke-miterlimit="10" d="M 0 0 L 0.61 -1.1 L 1.09 -2.28 L 1.77 -3.34 L 2.51 -4.52 L 3.19 -5.74 L 3.8 -6.99 L 4.4 -8.26 L 5.08 -9.47 L 5.78 -10.68 L 6.67 -11.76 L 7.3 -13.01 L 8.16 -14.11 " transform="matrix(1, 0, 0, -1, 97.86, 310.05)"/>
<path fill-rule="nonzero" fill="rgb(100%, 100%, 100%)" fill-opacity="1" stroke-width="4" stroke-linecap="round" stroke-linejoin="round" stroke="rgb(13.73%, 12.16%, 12.55%)" stroke-opacity="1" stroke-miterlimit="10" d="M 0 0 L 0.51 -1.49 L 1.48 -2.74 L 2.49 -3.89 L 3.51 -5.1 L 5.07 -5.55 L 6.55 -6.13 L 8.14 -6.39 L 9.75 -6.37 L 11.52 -6.14 L 13.24 -5.65 L 14.53 -4.84 L 15.56 -3.76 L 16.44 -2.58 L 17.28 -1.35 L 17.79 0.04 L 18.27 1.46 L 18.41 2.95 L 18.59 4.44 L 18.34 6.13 L 17.84 7.74 L 17.24 9.15 L 16.02 10.06 L 14.82 10.92 L 13.56 11.73 L 12.11 12.15 L 10.62 12.33 L 9.16 12.79 L 7.65 12.53 L 6.19 12.49 L 4.73 12.21 L 3.47 11.43 L 2.25 10.56 L 1.5 9.25 L 0.82 7.93 L 0.58 6.6 L 0.12 5.35 L -0.13 4.03 L -0.1 2.69 L -0.14 1.35 Z M 0 0 " transform="matrix(1, 0, 0, -1, 83.4, 305.41)"/>
<path fill-rule="nonzero" fill="rgb(100%, 100%, 100%)" fill-opacity="1" stroke-width="4" stroke-linecap="round" stroke-linejoin="round" stroke="rgb(13.73%, 12.16%, 12.55%)" stroke-opacity="1" stroke-miterlimit="10" d="M 0 0 L 0.7 -1.05 L 1.21 -2.21 L 1.69 -3.39 L 2.5 -4.53 L 3.11 -5.79 L 3.77 -7.01 L 4.42 -8.24 L 5.3 -9.35 L 5.89 -10.61 L 6.7 -11.75 L 7.38 -12.97 L 8.18 -14.11 " transform="matrix(1, 0, 0, -1, 129.07, 297.6)"/>
<path fill-rule="nonzero" fill="rgb(100%, 100%, 100%)" fill-opacity="1" stroke-width="4" stroke-linecap="round" stroke-linejoin="round" stroke="rgb(13.73%, 12.16%, 12.55%)" stroke-opacity="1" stroke-miterlimit="10" d="M 0 0 L 0.42 -1.51 L 1.43 -2.72 L 2.31 -3.98 L 3.51 -4.92 L 4.95 -5.56 L 6.41 -6.24 L 8 -6.47 L 9.61 -6.31 L 11.36 -6.03 L 13.1 -5.65 L 14.42 -4.9 L 15.59 -3.95 L 16.27 -2.58 L 17.25 -1.43 L 17.77 -0.02 L 17.97 1.46 L 18.25 2.92 L 18.28 4.4 L 18.18 6.09 L 17.77 7.74 L 16.85 8.93 L 16.07 10.24 L 14.76 11.01 L 13.38 11.6 L 11.95 12.01 L 10.51 12.42 L 9.01 12.48 L 7.51 12.61 L 6.01 12.7 L 4.59 12.2 L 3.3 11.45 L 2.26 10.4 L 1.36 9.22 L 0.9 7.8 L 0.19 6.65 L -0.23 5.36 L -0.28 4 L -0.12 2.66 L -0.37 1.31 Z M 0 0 " transform="matrix(1, 0, 0, -1, 114.8, 292.89)"/>
<path fill-rule="nonzero" fill="rgb(100%, 100%, 100%)" fill-opacity="1" stroke-width="4" stroke-linecap="round" stroke-linejoin="round" stroke="rgb(13.73%, 12.16%, 12.55%)" stroke-opacity="1" stroke-miterlimit="10" d="M 0 0 L -0.14 -1.45 L -0.35 -2.9 L -0.3 -4.35 L -0.66 -5.78 L -0.64 -7.24 L -0.4 -8.71 L -0.56 -10.16 L -0.75 -11.59 L -0.94 -13.03 L -1.21 -14.47 L -1.34 -15.92 L -1.73 -17.34 L -1.81 -18.8 L -1.57 -20.3 L -2.11 -21.69 L -2.51 -23.11 L -2.44 -24.58 L -2.45 -26.05 L -2.98 -27.44 L -3.14 -28.89 L -3.53 -30.29 L -3.46 -31.78 L -3.85 -33.18 " transform="matrix(1, 0, 0, -1, 189.36, 348.57)"/>
<path fill-rule="nonzero" fill="rgb(100%, 100%, 100%)" fill-opacity="1" stroke-width="4" stroke-linecap="round" stroke-linejoin="round" stroke="rgb(13.73%, 12.16%, 12.55%)" stroke-opacity="1" stroke-miterlimit="10" d="M 0 -0 L -0.24 -1.41 L -0.26 -2.82 L -0.2 -4.24 L -0.36 -5.65 L -0.54 -7.05 L -0.42 -8.48 L -0.76 -9.86 L -0.8 -11.27 L -1.03 -12.66 L -1.07 -14.08 L -0.97 -15.53 L -1.34 -16.9 L -1.65 -18.28 L -2.09 -19.63 L -2.18 -21.06 L -2.54 -22.44 L -3.14 -23.73 L -3.87 -24.97 L -4.39 -26.27 L -4.75 -27.64 L -5.3 -28.94 " transform="matrix(1, 0, 0, -1, 276.58, 351.99)"/>
</svg>
